<svg width="15" height="15" viewBox="0 0 15 15" fill="#34BFA2" xmlns="http://www.w3.org/2000/svg">
<path d="M10.1614 6.13392C11.315 6.02635 12.4053 5.96488 13.148 6.01098C14.6019 6.10318 15.1076 6.61032 14.9811 8.20856C14.8863 9.46871 14.6651 11.6202 14.4755 13.326C14.3332 14.6015 13.4009 14.832 12.0261 14.832C9.29223 14.832 4.59888 13.8792 4.59888 13.8792L4.61468 6.73326C4.61468 6.73326 4.7411 6.67179 4.85172 6.64105C7.1076 6.03487 8.37384 2.86679 8.87298 1.61795C8.90531 1.53707 8.93442 1.46424 8.96037 1.40067C9.38704 0.355669 11.3466 0.832067 11.0937 2.16906C10.9357 3.01428 10.4932 4.82767 10.1614 6.13392Z"/>
<path d="M0.790127 6.19547H2.79705C3.22372 6.19547 3.58717 6.53355 3.58717 6.96385V13.6795C3.58717 14.1098 3.23952 14.4479 2.79705 14.4479H0.790127C0.347656 14.4479 0 14.1098 0 13.6795V6.96385C0 6.53355 0.347656 6.19547 0.790127 6.19547Z"/>
</svg>