<svg width="40" height="40" viewBox="0 0 40 40" fill="none" xmlns="http://www.w3.org/2000/svg">
<circle cx="20" cy="20" r="20" fill="#FC0D1B"/>
<path d="M18 23V16.9999L23.196 20L18 23ZM29.582 15.1861C29.352 14.3256 28.6744 13.6479 27.8139 13.4179C26.2541 12.9999 20 12.9999 20 12.9999C20 12.9999 13.7458 12.9999 12.1861 13.4179C11.3257 13.6479 10.6479 14.3256 10.4179 15.1861C10 16.7458 10 19.9999 10 19.9999C10 19.9999 10 23.2542 10.4179 24.8138C10.6479 25.6742 11.3257 26.352 12.1861 26.5819C13.7458 27 20 27 20 27C20 27 26.2541 27 27.8139 26.5819C28.6744 26.352 29.352 25.6742 29.582 24.8138C30 23.2542 30 19.9999 30 19.9999C30 19.9999 30 16.7458 29.582 15.1861Z" fill="white"/>
</svg>
