<svg width="40" height="40" viewBox="0 0 40 40" fill="none" xmlns="http://www.w3.org/2000/svg">
<circle cx="20" cy="20" r="20" fill="#DF4D8A"/>
<path d="M23.6593 20.0028C23.6593 17.9816 22.0208 16.3433 19.9998 16.3433C17.9786 16.3433 16.3403 17.9816 16.3403 20.0028C16.3403 22.0238 17.9786 23.6623 19.9998 23.6623C22.0208 23.6623 23.6593 22.0238 23.6593 20.0028Z" fill="white"/>
<path fill-rule="evenodd" clip-rule="evenodd" d="M19.6342 11.0026C19.4122 11.0025 19.2065 11.0024 19.0152 11.0027V11C16.9691 11.0023 16.5766 11.016 15.5639 11.0618C14.4935 11.1109 13.9123 11.2893 13.5253 11.4403C13.013 11.6397 12.647 11.8776 12.2628 12.2618C11.8785 12.6461 11.6402 13.012 11.4412 13.5244C11.2909 13.9114 11.1121 14.4923 11.0631 15.5627C11.0105 16.72 11 17.0659 11 19.9976C11 22.9293 11.0105 23.277 11.0631 24.4343C11.1118 25.5047 11.2909 26.0857 11.4412 26.4722C11.6406 26.9848 11.8785 27.3498 12.2628 27.734C12.647 28.1183 13.013 28.3562 13.5253 28.5551C13.9125 28.7054 14.4935 28.8843 15.5639 28.9337C16.7212 28.9863 17.0686 28.9977 20.0001 28.9977C22.9314 28.9977 23.279 28.9863 24.4364 28.9337C25.5068 28.8847 26.0882 28.7063 26.4747 28.5554C26.9873 28.3564 27.3521 28.1185 27.7363 27.7343C28.1206 27.3502 28.3589 26.9854 28.5579 26.4731C28.7082 26.0866 28.887 25.5056 28.936 24.4352C28.9886 23.2779 29 22.9302 29 20.0003C29 17.0704 28.9886 16.7228 28.936 15.5655C28.8872 14.4951 28.7082 13.9141 28.5579 13.5276C28.3584 13.0152 28.1206 12.6493 27.7363 12.265C27.3523 11.8808 26.987 11.6429 26.4747 11.4439C26.0877 11.2937 25.5068 11.1148 24.4364 11.0659C23.2788 11.0133 22.9314 11.0027 20.0001 11.0027L19.6342 11.0026ZM24.543 14.1421C24.543 13.4145 25.1331 12.8251 25.8604 12.8251C26.5878 12.8251 27.1779 13.4148 27.1779 14.1421C27.1779 14.8694 26.5878 15.4595 25.8604 15.4595C25.1331 15.4595 24.543 14.8694 24.543 14.1421ZM19.9998 14.3651C16.8863 14.3652 14.362 16.8895 14.362 20.003C14.362 23.1166 16.8864 25.6398 20 25.6398C23.1135 25.6398 25.637 23.1166 25.637 20.003C25.637 16.8894 23.1133 14.3651 19.9998 14.3651Z" fill="white"/>
</svg>
