<svg width="40" height="40" viewBox="0 0 40 40" fill="none" xmlns="http://www.w3.org/2000/svg">
<circle cx="20" cy="20" r="20" fill="#41ABE1"/>
<path fill-rule="evenodd" clip-rule="evenodd" d="M30 14.8953C29.263 15.2156 28.4723 15.4331 27.6428 15.53C28.4902 15.0305 29.1407 14.2371 29.445 13.2938C28.6514 13.7581 27.7741 14.0931 26.8402 14.2753C26.0913 13.4907 25.0261 13 23.8445 13C21.5799 13 19.7419 14.8101 19.7419 17.0404C19.7419 17.3578 19.7777 17.6663 19.8493 17.9601C16.4389 17.7927 13.4164 16.1824 11.3934 13.7376C11.0413 14.3341 10.8384 15.0275 10.8384 15.768C10.8384 17.1697 11.5635 18.4068 12.6645 19.1297C11.9931 19.1091 11.3606 18.9269 10.8056 18.6242C10.8056 18.6419 10.8056 18.6566 10.8056 18.6742C10.8056 20.6312 12.2199 22.265 14.0967 22.6353C13.7535 22.7264 13.3895 22.7763 13.0166 22.7763C12.751 22.7763 12.4944 22.7499 12.2438 22.7028C12.7659 24.3073 14.2817 25.4768 16.0749 25.5091C14.6696 26.5934 12.9032 27.2399 10.9787 27.2399C10.6475 27.2399 10.3222 27.2193 10 27.184C11.8141 28.33 13.9714 29 16.2897 29C23.8356 29 27.9621 22.8439 27.9621 17.5047C27.9621 17.3284 27.9591 17.155 27.9502 16.9816C28.7528 16.4116 29.448 15.7005 29.997 14.8894L30 14.8953Z" fill="white"/>
</svg>
