<svg width="110" height="113" viewBox="0 0 110 113" fill="none" xmlns="http://www.w3.org/2000/svg">
<path d="M110 63C110 90.6142 91.0791 113 67.7391 113L0 113L1.19249e-06 13L67.7391 13C91.0791 13 110 35.3858 110 63Z" fill="#FFF6EB"/>
<path d="M73.3273 64.2091L60.5205 62.4909C60.1353 62.4404 59.7819 62.2508 59.527 61.9577C59.272 61.6646 59.1331 61.2884 59.1364 60.9V55.8886L64.3386 49.9545C66.1077 47.9201 67.0848 45.3165 67.0909 42.6205V38.0227C68.439 37.6564 69.6291 36.8566 70.4775 35.7468C71.326 34.637 71.7857 33.2788 71.7857 31.8818C71.7857 30.4848 71.326 29.1267 70.4775 28.0169C69.6291 26.907 68.439 26.1073 67.0909 25.7409V14.3182C67.0909 10.5208 65.5824 6.87888 62.8972 4.1937C60.212 1.50852 56.5701 0 52.7727 0H25.7273C25.5014 0.000286039 25.2782 0.0486711 25.0724 0.141936C24.8667 0.235202 24.6832 0.371209 24.5341 0.540909C24.3868 0.709276 24.2766 0.906819 24.2108 1.12064C24.145 1.33446 24.1251 1.55976 24.1523 1.78182C24.6178 5.5478 26.4049 9.02629 29.1955 11.5977C29.012 12.4931 28.9161 13.4042 28.9091 14.3182V25.6773C27.561 26.0436 26.3709 26.8434 25.5225 27.9532C24.674 29.063 24.2143 30.4212 24.2143 31.8182C24.2143 33.2152 24.674 34.5733 25.5225 35.6831C26.3709 36.793 27.561 37.5927 28.9091 37.9591V42.6205C28.9152 45.3165 29.8923 47.9201 31.6614 49.9545L36.8636 55.8886V60.9159C36.8669 61.3043 36.728 61.6806 36.473 61.9736C36.2181 62.2667 35.8647 62.4563 35.4795 62.5068L22.7523 64.225C20.0665 64.5614 17.5951 65.8645 15.8003 67.8906C14.0054 69.9168 13.0099 72.5273 13 75.2341V92.2727H16.1818V75.2341C16.1842 73.308 16.8854 71.4482 18.1552 69.9999C19.425 68.5517 21.1771 67.6133 23.0864 67.3591L32.95 66.0386L33.2364 66.6909C34.4766 69.5781 36.5362 72.0383 39.1603 73.767C41.7843 75.4957 44.8577 76.4171 48 76.4171C51.1423 76.4171 54.2157 75.4957 56.8397 73.767C59.4638 72.0383 61.5234 69.5781 62.7636 66.6909L63.05 66.0386L72.9136 67.3591C74.8229 67.6133 76.575 68.5517 77.8448 69.9999C79.1146 71.4482 79.8158 73.308 79.8182 75.2341V92.2727H83V75.2341C82.9964 72.5366 82.0139 69.9321 80.2349 67.9044C78.4559 65.8767 76.0014 64.5636 73.3273 64.2091ZM63.9091 19.9023C62.297 18.9277 60.965 17.5519 60.0432 15.9091H63.9091V19.9023ZM68.6818 31.8182C68.6785 32.3735 68.5299 32.9182 68.2508 33.3982C67.9717 33.8783 67.5718 34.2769 67.0909 34.5545V29.1455C67.5627 29.4176 67.9567 29.8062 68.2352 30.2742C68.5138 30.7421 68.6675 31.2738 68.6818 31.8182ZM27.6523 3.18182H52.7727C55.4511 3.18113 58.0401 4.14578 60.065 5.89895C62.0899 7.65211 63.4151 10.0763 63.7977 12.7273H40.1409C37.3019 12.7207 34.5433 11.7836 32.2877 10.0596C30.032 8.33552 28.4038 5.91959 27.6523 3.18182ZM35.8932 15.3364C34.9408 16.9746 33.6434 18.3861 32.0909 19.4727V14.3182C32.0909 14.1273 32.0909 13.9364 32.0909 13.7455C33.2834 14.4395 34.5617 14.9744 35.8932 15.3364ZM27.3182 31.8182C27.3215 31.2629 27.4701 30.7182 27.7492 30.2381C28.0283 29.7581 28.4282 29.3594 28.9091 29.0818V34.5545C28.4282 34.2769 28.0283 33.8783 27.7492 33.3982C27.4701 32.9182 27.3215 32.3735 27.3182 31.8182ZM32.0909 42.6205V23.2432C35.1705 21.6133 37.6504 19.0443 39.1705 15.9091C39.4886 15.9091 39.8068 15.9091 40.1409 15.9091H56.4636C57.8698 19.2882 60.542 21.9833 63.9091 23.4182V42.6205C63.9068 44.5464 63.2059 46.4062 61.9364 47.8545L55.0636 55.6818C54.6117 56.1871 54.0573 56.5904 53.4373 56.8647C52.8174 57.139 52.1461 57.2781 51.4682 57.2727H44.5318C43.8539 57.2781 43.1826 57.139 42.5627 56.8647C41.9427 56.5904 41.3883 56.1871 40.9364 55.6818L34.0636 47.8227C32.8013 46.3826 32.1008 44.5355 32.0909 42.6205ZM48 73.1818C45.5057 73.1819 43.0651 72.4572 40.975 71.0958C38.8849 69.7345 37.2355 67.7951 36.2273 65.5136C37.292 65.2964 38.2508 64.7224 38.9451 63.8864C39.6394 63.0504 40.0275 62.0025 40.0455 60.9159V59.1341C41.3676 60.0363 42.9312 60.5187 44.5318 60.5182H51.4682C53.0688 60.5187 54.6324 60.0363 55.9545 59.1341V60.9159C55.958 62.0134 56.3396 63.0762 57.035 63.9253C57.7305 64.7744 58.6974 65.3578 59.7727 65.5773C58.7551 67.8469 57.1016 69.7729 55.0122 71.1225C52.9229 72.4721 50.4873 73.1874 48 73.1818Z" fill="black"/>
<path d="M44.8185 39.7731H49.5912V36.5913H46.6162L48.0003 25.7254L44.8185 25.3276L43.2276 38.0549C43.2004 38.277 43.2204 38.5023 43.2862 38.7161C43.352 38.9299 43.4621 39.1275 43.6094 39.2958C43.766 39.456 43.9546 39.5813 44.163 39.6636C44.3714 39.7458 44.5947 39.7831 44.8185 39.7731Z" fill="black"/>
<path d="M57.0844 42.4928C57.3839 42.1933 57.5522 41.7869 57.5522 41.3633C57.5522 40.9396 57.3839 40.5333 57.0844 40.2337C56.7848 39.9342 56.3785 39.7659 55.9548 39.7659C55.5312 39.7659 55.1248 39.9342 54.8253 40.2337C53.0357 41.9836 50.6304 42.9606 48.1275 42.9542H43.2275V46.136H48.1275C51.4762 46.1472 54.6943 44.8382 57.0844 42.4928Z" fill="black"/>
<path d="M38.4543 31.8819C40.2115 31.8819 41.6361 30.4574 41.6361 28.7001C41.6361 26.9429 40.2115 25.5183 38.4543 25.5183C36.697 25.5183 35.2725 26.9429 35.2725 28.7001C35.2725 30.4574 36.697 31.8819 38.4543 31.8819Z" fill="black"/>
<path d="M55.9543 31.8819C57.7115 31.8819 59.1361 30.4574 59.1361 28.7001C59.1361 26.9429 57.7115 25.5183 55.9543 25.5183C54.197 25.5183 52.7725 26.9429 52.7725 28.7001C52.7725 30.4574 54.197 31.8819 55.9543 31.8819Z" fill="black"/>
</svg>
