<svg width="18" height="18" viewBox="0 0 18 18" fill="none" xmlns="http://www.w3.org/2000/svg">
<path fill-rule="evenodd" clip-rule="evenodd" d="M14.5071 7.76238C14.5071 11.4982 11.4824 14.5248 7.75356 14.5248C4.02474 14.5248 1 11.4982 1 7.76238C1 4.02655 4.02474 1 7.75356 1C11.4824 1 14.5071 4.02655 14.5071 7.76238ZM13.5351 14.2579C13.1621 13.8844 12.5665 13.8715 12.1312 14.1701C10.8854 15.0248 9.37783 15.5248 7.75356 15.5248C3.47139 15.5248 0 12.0494 0 7.76238C0 3.47534 3.47139 0 7.75356 0C12.0357 0 15.5071 3.47534 15.5071 7.76238C15.5071 9.38927 15.0072 10.8993 14.1528 12.1468C13.855 12.5815 13.8679 13.176 14.2403 13.5488L17.8337 17.1463C18.0288 17.3416 18.0287 17.6582 17.8333 17.8534C17.6379 18.0485 17.3213 18.0483 17.1262 17.853L13.5351 14.2579Z" fill="white"/>
</svg>
