<svg width="38" height="38" viewBox="0 0 38 38" fill="none" xmlns="http://www.w3.org/2000/svg">
<circle opacity="0.8" cx="19" cy="19" r="19" fill="white"/>
<path d="M17.9528 20.742H19.5183V19.6921H18.579L19.1635 16.5054L18.1198 16.3164L17.4309 20.1226C17.4168 20.198 17.4193 20.2757 17.4382 20.35C17.4571 20.4244 17.492 20.4937 17.5405 20.553C17.5907 20.6137 17.6538 20.6622 17.7252 20.6949C17.7966 20.7276 17.8743 20.7437 17.9528 20.742Z" fill="#242424"/>
<path d="M21.4541 22.1649L20.7131 21.4194C20.5975 21.538 20.4594 21.6321 20.307 21.6961C20.1547 21.7601 19.9911 21.7928 19.826 21.7922H17.4307V22.8421H19.826C20.4364 22.842 21.0219 22.5985 21.4541 22.1649Z" fill="#242424"/>
<path d="M15.865 18.1175C16.4414 18.1175 16.9087 17.6474 16.9087 17.0675C16.9087 16.4877 16.4414 16.0176 15.865 16.0176C15.2886 16.0176 14.8213 16.4877 14.8213 17.0675C14.8213 17.6474 15.2886 18.1175 15.865 18.1175Z" fill="#242424"/>
<path d="M21.6062 18.1175C22.1826 18.1175 22.6499 17.6474 22.6499 17.0675C22.6499 16.4877 22.1826 16.0176 21.6062 16.0176C21.0298 16.0176 20.5625 16.4877 20.5625 17.0675C20.5625 17.6474 21.0298 18.1175 21.6062 18.1175Z" fill="#242424"/>
<path fill-rule="evenodd" clip-rule="evenodd" d="M26.4015 28.134L22.6494 27.609V24.9421L24.074 23.3094C24.5068 22.8058 24.7699 22.1773 24.8255 21.514L24.9716 19.6923C25.4227 19.6355 25.8429 19.4322 26.1686 19.1132C26.4943 18.7943 26.7076 18.377 26.7761 17.925C26.8446 17.4729 26.7646 17.0107 26.5481 16.6086C26.3317 16.2065 25.9907 15.8865 25.577 15.6971L26.0205 14.3584C26.1394 14.0095 26.1737 13.637 26.1206 13.272C26.0674 12.907 25.9283 12.5601 25.7149 12.2602C25.5015 11.9602 25.2199 11.7159 24.8937 11.5476C24.5674 11.3793 24.2059 11.2918 23.8392 11.2925H23.6513C23.5259 10.4186 23.092 9.61934 22.4289 9.04092C21.7658 8.46251 20.9178 8.14361 20.0401 8.14258H12.2123C12.0739 8.14258 11.9412 8.19789 11.8433 8.29634C11.7454 8.3948 11.6905 8.52833 11.6905 8.66756C11.6911 9.22396 11.8173 9.77295 12.0596 10.2731C12.3018 10.7733 12.6538 11.2116 13.089 11.555C12.6067 11.8105 12.2299 12.2296 12.0255 12.738C11.821 13.2464 11.8022 13.8111 11.9723 14.3322L12.5724 16.1434C12.1328 16.3105 11.7622 16.6221 11.5205 17.0275C11.2787 17.4329 11.1801 17.9085 11.2405 18.3774C11.3008 18.8462 11.5167 19.2808 11.8531 19.6109C12.1895 19.941 12.6268 20.1473 13.0943 20.1962L13.2143 21.5035C13.2677 22.1705 13.5309 22.803 13.9657 23.3094L15.3695 24.9421H15.3434V27.63L11.5913 28.155C10.4669 28.3059 9.43472 28.8611 8.68555 29.718L9.46441 30.3997C10.0469 29.7307 10.8508 29.2969 11.727 29.1787L14.4198 28.8165L15.4582 28.6748H15.6096L16.3767 27.9345V26.1128L16.5698 26.3228C16.7649 26.5478 17.0055 26.7283 17.2755 26.8523C17.5454 26.9763 17.8386 27.041 18.1353 27.0421H19.847C20.1438 27.041 20.437 26.9763 20.7069 26.8523C20.9769 26.7283 21.2175 26.5478 21.4126 26.3228L21.5952 26.1128V27.9345L22.3832 28.6538H22.5346L23.5731 28.8165L26.2658 29.1787C27.142 29.2969 27.9459 29.7307 28.5284 30.3997L29.3141 29.7049C28.5645 28.8436 27.5295 28.2854 26.4015 28.134ZM25.2586 16.6841L25.0708 18.5793H25.0812C25.2685 18.5122 25.4328 18.3928 25.5548 18.235C25.6769 18.0772 25.7517 17.8876 25.7703 17.6886C25.7889 17.4895 25.7507 17.2892 25.66 17.1113C25.5694 16.9333 25.4301 16.7851 25.2586 16.6841ZM25.0819 13.4131C25.0519 13.2155 24.9747 13.0283 24.8568 12.8674C24.7509 12.7156 24.6125 12.5895 24.4517 12.4987C24.2909 12.4078 24.1119 12.3544 23.9279 12.3425L24.7994 14.6891L25.029 14.0014C25.0938 13.8125 25.1119 13.6106 25.0819 13.4131ZM21.6907 9.78405C21.2247 9.40138 20.6416 9.19243 20.0401 9.19255H12.7864C12.9067 9.78545 13.2269 10.3183 13.6929 10.701C14.1588 11.0837 14.7419 11.2926 15.3434 11.2925H22.5972C22.4769 10.6996 22.1567 10.1667 21.6907 9.78405ZM13.555 12.4919C13.3885 12.583 13.2451 12.7115 13.136 12.8674C13.0182 13.0283 12.9409 13.2155 12.9109 13.4131C12.8809 13.6106 12.8991 13.8125 12.9638 14.0014L13.256 14.8834L14.0962 12.3425C13.9068 12.3497 13.7216 12.4009 13.555 12.4919ZM12.3704 17.5675C12.2681 17.7325 12.2134 17.9229 12.2123 18.1173C12.2138 18.3443 12.2883 18.5646 12.4247 18.7454C12.5611 18.9262 12.7521 19.0576 12.969 19.12L12.7916 17.1828C12.6185 17.2694 12.4727 17.4025 12.3704 17.5675ZM13.7779 16.6001L14.2319 21.4142C14.2668 21.8693 14.4482 22.3006 14.7485 22.6427L17.3578 25.6613C17.4556 25.7733 17.576 25.8631 17.711 25.9247C17.8459 25.9862 17.9924 26.0181 18.1406 26.0183H19.847C19.9952 26.0181 20.1417 25.9862 20.2766 25.9247C20.4116 25.8631 20.532 25.7733 20.6298 25.6613L23.2391 22.6427C23.5342 22.3111 23.7169 21.8938 23.7609 21.451L24.2149 16.5423V16.1119L22.8112 12.3425H15.1973L13.7779 16.6001Z" fill="#242424"/>
</svg>
