<svg width="14" height="15" viewBox="0 0 14 15" fill="none" xmlns="http://www.w3.org/2000/svg">
<path d="M8.26758 12.5757H5.12305V14.8315H2.66211V12.5757H0.660156V10.5933H2.66211V9.54834H0.660156V7.56592H2.66211V0.612793H8.10156C9.67057 0.612793 10.9238 1.02295 11.8613 1.84326C12.7988 2.65706 13.2676 3.74105 13.2676 5.09521C13.2676 6.47542 12.8216 7.55941 11.9297 8.34717C11.0378 9.12842 9.79753 9.52881 8.20898 9.54834H5.12305V10.5933H8.26758V12.5757ZM5.12305 7.56592H8.0625C8.94792 7.56592 9.625 7.36084 10.0938 6.95068C10.5625 6.54053 10.7969 5.92855 10.7969 5.11475C10.7969 4.38558 10.5658 3.78988 10.1035 3.32764C9.64779 2.8654 9.01628 2.62451 8.20898 2.60498H5.12305V7.56592Z" fill="#34BFA2"/>
</svg>
