<svg width="17" height="20" viewBox="0 0 17 20" fill="none" xmlns="http://www.w3.org/2000/svg">
<path d="M7.60253 11.312H8.88693V10.4506H8.11629L8.5958 7.83621L7.73954 7.68115L7.1744 10.8038C7.1628 10.8657 7.16484 10.9294 7.18038 10.9904C7.19591 11.0514 7.22456 11.1083 7.26431 11.1569C7.30548 11.2067 7.35727 11.2465 7.41582 11.2733C7.47438 11.3002 7.5382 11.3134 7.60253 11.312Z" fill="#34BFA2"/>
<path d="M10.4757 12.4793L9.86777 11.8677C9.77288 11.9649 9.6596 12.0421 9.5346 12.0946C9.4096 12.1472 9.2754 12.174 9.13994 12.1735H7.1748V13.0349H9.13994C9.64074 13.0348 10.1211 12.835 10.4757 12.4793Z" fill="#34BFA2"/>
<path d="M5.89045 9.15836C6.36335 9.15836 6.74671 8.7727 6.74671 8.29695C6.74671 7.82121 6.36335 7.43555 5.89045 7.43555C5.41754 7.43555 5.03418 7.82121 5.03418 8.29695C5.03418 8.7727 5.41754 9.15836 5.89045 9.15836Z" fill="#34BFA2"/>
<path d="M10.5994 9.15836C11.0723 9.15836 11.4557 8.7727 11.4557 8.29695C11.4557 7.82121 11.0723 7.43555 10.5994 7.43555C10.1265 7.43555 9.74316 7.82121 9.74316 8.29695C9.74316 8.7727 10.1265 9.15836 10.5994 9.15836Z" fill="#34BFA2"/>
<path fill-rule="evenodd" clip-rule="evenodd" d="M14.5344 17.3761L11.4561 16.9454V14.7574L12.6249 13.4179C12.9799 13.0048 13.1958 12.4891 13.2414 11.9449L13.3613 10.4503C13.7313 10.4038 14.0761 10.237 14.3433 9.9753C14.6105 9.7136 14.7855 9.37132 14.8417 9.00045C14.8979 8.62958 14.8322 8.25039 14.6547 7.9205C14.4771 7.5906 14.1973 7.32803 13.8579 7.17268L14.2218 6.07439C14.3194 5.78811 14.3475 5.48253 14.3039 5.1831C14.2603 4.88367 14.1462 4.59906 13.9711 4.35297C13.796 4.10688 13.565 3.90644 13.2973 3.76835C13.0296 3.63026 12.733 3.55851 12.4322 3.55908H12.2781C12.1752 2.84213 11.8192 2.1864 11.2752 1.71187C10.7311 1.23733 10.0355 0.975702 9.31541 0.974854H2.8934C2.77985 0.974854 2.67096 1.02023 2.59067 1.101C2.51038 1.18178 2.46527 1.29133 2.46527 1.40556C2.46578 1.86203 2.56933 2.31243 2.76809 2.72278C2.96685 3.13313 3.25563 3.49272 3.61267 3.77443C3.21695 3.98405 2.90782 4.32789 2.7401 4.74497C2.57239 5.16204 2.55692 5.6254 2.69646 6.05285L3.18881 7.53878C2.82818 7.67594 2.52411 7.93151 2.3258 8.26412C2.12749 8.59674 2.04655 8.98694 2.09608 9.37159C2.1456 9.75623 2.3227 10.1128 2.59871 10.3836C2.87471 10.6544 3.23348 10.8236 3.61695 10.8638L3.71542 11.9363C3.75927 12.4835 3.97521 13.0024 4.33193 13.4179L5.48361 14.7574H5.4622V16.9626L2.38392 17.3933C1.46142 17.5171 0.614631 17.9726 0 18.6756L0.638985 19.2349C1.11687 18.686 1.77638 18.3301 2.49524 18.2332L4.70441 17.936L5.55639 17.8197H5.68055L6.30991 17.2124V15.7178L6.46832 15.8901C6.62841 16.0747 6.82577 16.2228 7.04725 16.3245C7.26873 16.4263 7.50924 16.4793 7.75272 16.4802H9.157C9.40048 16.4793 9.64098 16.4263 9.86246 16.3245C10.0839 16.2228 10.2813 16.0747 10.4414 15.8901L10.5912 15.7178V17.2124L11.2377 17.8025H11.3619L12.2139 17.936L14.423 18.2332C15.1419 18.3301 15.8014 18.686 16.2793 19.2349L16.9239 18.6648C16.3089 17.9582 15.4598 17.5002 14.5344 17.3761ZM13.5967 7.9824L13.4426 9.53724H13.4512C13.6048 9.48223 13.7396 9.38424 13.8398 9.25479C13.9399 9.12534 14.0012 8.96981 14.0165 8.80649C14.0318 8.64318 14.0004 8.47887 13.9261 8.33288C13.8517 8.18689 13.7374 8.0653 13.5967 7.9824ZM13.4517 5.29882C13.4271 5.13677 13.3638 4.98315 13.2671 4.85119C13.1802 4.72658 13.0666 4.62319 12.9347 4.54864C12.8028 4.4741 12.656 4.4303 12.505 4.42048L13.22 6.34573L13.4084 5.78151C13.4615 5.62652 13.4764 5.46088 13.4517 5.29882ZM10.6696 2.32153C10.2873 2.00759 9.8089 1.83616 9.31541 1.83626H3.36435C3.46305 2.32268 3.72577 2.75986 4.10806 3.07381C4.49035 3.38775 4.96871 3.55918 5.4622 3.55908H11.4133C11.3146 3.07265 11.0518 2.63548 10.6696 2.32153ZM3.99499 4.54312C3.85836 4.61782 3.7407 4.72325 3.6512 4.85119C3.55452 4.98315 3.49115 5.13677 3.46654 5.29882C3.44193 5.46088 3.45681 5.62652 3.50991 5.78151L3.74967 6.50509L4.43896 4.42048C4.28357 4.42645 4.13163 4.46841 3.99499 4.54312ZM3.02308 8.70719C2.93918 8.84255 2.89428 8.9987 2.8934 9.15823C2.8946 9.34443 2.95573 9.52522 3.06765 9.67353C3.17957 9.82184 3.33624 9.92967 3.5142 9.98087L3.36863 8.39157C3.22662 8.46256 3.10699 8.57183 3.02308 8.70719ZM4.1778 7.91349L4.55028 11.863C4.57893 12.2364 4.72772 12.5902 4.97413 12.8709L7.1148 15.3474C7.19504 15.4393 7.29381 15.513 7.40454 15.5635C7.51527 15.614 7.63542 15.6402 7.757 15.6403H9.157C9.27857 15.6402 9.39872 15.614 9.50945 15.5635C9.62018 15.513 9.71896 15.4393 9.7992 15.3474L11.9399 12.8709C12.182 12.5989 12.3319 12.2565 12.368 11.8932L12.7405 7.86611V7.51294L11.5888 4.42048H5.34233L4.1778 7.91349Z" fill="#34BFA2"/>
</svg>
