<svg width="144" height="48" viewBox="0 0 144 48" fill="none" xmlns="http://www.w3.org/2000/svg">
<rect width="144" height="48" rx="6" fill="#242424"/>
<path fill-rule="evenodd" clip-rule="evenodd" d="M73.1402 26.7498C70.7956 26.7608 68.9028 28.6685 68.9102 31.0131C68.9175 33.3577 70.8222 35.2534 73.1668 35.2497C75.5114 35.2461 77.4101 33.3444 77.4102 30.9998C77.4266 29.8642 76.9814 28.7705 76.1764 27.9693C75.3714 27.1681 74.2757 26.728 73.1402 26.7498ZM73.1399 33.5801C72.0832 33.654 71.0886 33.0744 70.632 32.1185C70.1753 31.1626 70.3494 30.0248 71.0709 29.2491C71.7924 28.4735 72.9148 28.2177 73.9011 28.6042C74.8875 28.9906 75.5373 29.9407 75.5399 31.0001C75.5725 31.6628 75.336 32.3105 74.8841 32.7963C74.4322 33.282 73.8032 33.5647 73.1399 33.5801ZM63.8298 26.7498C61.4839 26.7553 59.5862 28.6605 59.5898 31.0064C59.5935 33.3524 61.4973 35.2516 63.8432 35.2498C66.1891 35.2479 68.0898 33.3457 68.0898 30.9998C68.1063 29.8642 67.6611 28.7705 66.8561 27.9693C66.0511 27.1681 64.9554 26.728 63.8198 26.7498H63.8298ZM63.8301 33.5803C62.7728 33.6584 61.7753 33.0817 61.3155 32.1264C60.8556 31.1712 61.0269 30.0318 61.7474 29.254C62.4679 28.4763 63.5909 28.2184 64.5785 28.604C65.5661 28.9896 66.2172 29.9401 66.2201 31.0003C66.2526 31.663 66.0161 32.3107 65.5642 32.7965C65.1123 33.2823 64.4834 33.565 63.8201 33.5803H63.8301ZM52.7401 28.0601V29.8601H57.0601C56.9924 30.7079 56.6399 31.5079 56.0601 32.1301C55.1861 33.0204 53.9766 33.4998 52.7301 33.4501C50.0791 33.4501 47.9301 31.3011 47.9301 28.6501C47.9301 25.9992 50.0791 23.8501 52.7301 23.8501C53.9479 23.8303 55.1239 24.2942 56.0001 25.1401L57.2701 23.8701C56.075 22.66 54.4408 21.9854 52.7401 22.0001C50.3191 21.9059 48.0405 23.1438 46.802 25.2262C45.5634 27.3086 45.5634 29.9017 46.802 31.9841C48.0405 34.0665 50.3191 35.3044 52.7401 35.2101C54.4719 35.2884 56.1528 34.6138 57.3501 33.3601C58.3978 32.2091 58.9571 30.6959 58.9101 29.1401C58.9133 28.7611 58.8798 28.3827 58.8101 28.0101L52.7401 28.0601ZM98.0502 29.46C97.5163 27.8892 96.0681 26.8111 94.4102 26.75C93.3045 26.7478 92.2473 27.2034 91.4896 28.0085C90.7318 28.8137 90.3411 29.8965 90.4102 31C90.3856 32.1293 90.8213 33.22 91.6172 34.0216C92.4131 34.8231 93.5007 35.2666 94.6302 35.25C96.051 35.2577 97.3808 34.5515 98.1702 33.37L96.7202 32.37C96.2799 33.1039 95.486 33.5522 94.6302 33.55C93.7438 33.5838 92.9268 33.0722 92.5702 32.26L98.2602 29.91L98.0502 29.46ZM92.2501 30.8801C92.2092 30.2552 92.4214 29.6402 92.8391 29.1737C93.2567 28.7071 93.8446 28.4283 94.4701 28.4001C95.1295 28.3566 95.7512 28.7108 96.0501 29.3001L92.2501 30.8801ZM87.6299 35H89.4999V22.5H87.6299V35ZM84.5697 27.7002H84.4997C83.9297 27.0629 83.1148 26.6991 82.2597 26.7002C79.9899 26.8103 78.2061 28.6827 78.2061 30.9552C78.2061 33.2277 79.9899 35.1001 82.2597 35.2102C83.1175 35.2246 83.9377 34.8585 84.4997 34.2102H84.5597V34.8202C84.5597 36.4502 83.6897 37.3202 82.2897 37.3202C81.336 37.2979 80.4904 36.7012 80.1497 35.8102L78.5197 36.4902C79.1474 38.017 80.639 39.0101 82.2897 39.0002C84.4797 39.0002 86.2897 37.7102 86.2897 34.5702V27.0002H84.5697V27.7002ZM82.43 33.5799C81.0929 33.4621 80.0674 32.3422 80.0674 30.9999C80.0674 29.6576 81.0929 28.5378 82.43 28.4199C83.0761 28.4531 83.6815 28.7457 84.1089 29.2314C84.5362 29.7171 84.7494 30.3548 84.7 30.9999C84.7551 31.648 84.5427 32.2904 84.112 32.7777C83.6813 33.2651 83.0699 33.5549 82.42 33.5799H82.43ZM106.81 22.5003H102.33V35.0003H104.2V30.2603H106.81C108.263 30.3646 109.652 29.6488 110.41 28.4052C111.168 27.1617 111.168 25.5988 110.41 24.3553C109.652 23.1118 108.263 22.3959 106.81 22.5003ZM106.81 28.5002H104.2V24.2402H106.85C108.035 24.2402 108.995 25.2006 108.995 26.3852C108.995 27.5699 108.035 28.5302 106.85 28.5302L106.81 28.5002ZM118.34 26.7006C116.949 26.6174 115.641 27.3677 115.01 28.6106L116.67 29.3006C117.005 28.6843 117.671 28.3235 118.37 28.3806C118.85 28.3246 119.332 28.4636 119.708 28.7663C120.084 29.0691 120.323 29.5102 120.37 29.9906V30.1206C119.77 29.8026 119.1 29.6377 118.42 29.6406C116.63 29.6406 114.82 30.6406 114.82 32.4506C114.856 33.2303 115.206 33.9624 115.789 34.4804C116.373 34.9984 117.142 35.2581 117.92 35.2006C118.88 35.2695 119.8 34.8093 120.32 34.0006H120.38V35.0006H122.18V30.1906C122.18 28.0006 120.52 26.7306 118.39 26.7306L118.34 26.7006ZM118.11 33.5502C117.5 33.5502 116.65 33.2402 116.65 32.4902C116.65 31.4902 117.71 31.1602 118.65 31.1602C119.244 31.1455 119.832 31.2906 120.35 31.5802C120.221 32.6996 119.287 33.5527 118.16 33.5802L118.11 33.5502ZM128.74 27L126.6 32.42H126.54L124.32 27H122.32L125.65 34.58L123.75 38.79H125.7L130.82 27H128.74ZM111.93 35H113.8V22.5H111.93V35Z" fill="white"/>
<path fill-rule="evenodd" clip-rule="evenodd" d="M15.4402 12.5397C15.1214 12.9338 14.9641 13.4342 15.0002 13.9397V36.0598C14.9697 36.568 15.1342 37.0687 15.4602 37.4598L15.5302 37.5298L27.9002 25.1498V24.8598L15.5102 12.4697L15.4402 12.5397Z" fill="url(#paint0_linear)"/>
<path fill-rule="evenodd" clip-rule="evenodd" d="M32.0004 29.2802L27.9004 25.1502V24.8602L32.0004 20.7202L32.0904 20.7702L37.0004 23.5602C38.4004 24.3502 38.4004 25.6502 37.0004 26.4502L32.1104 29.2302L32.0004 29.2802Z" fill="url(#paint1_linear)"/>
<path fill-rule="evenodd" clip-rule="evenodd" d="M32.1204 29.22L27.9004 25L15.4404 37.46C16.0291 37.9775 16.9029 38.0027 17.5204 37.52L32.1304 29.22" fill="url(#paint2_linear)"/>
<path fill-rule="evenodd" clip-rule="evenodd" d="M32.1197 20.7801L17.5097 12.48C16.8921 11.9973 16.0184 12.0225 15.4297 12.54L27.8997 25.0001L32.1197 20.7801Z" fill="url(#paint3_linear)"/>
<path opacity="0.2" fill-rule="evenodd" clip-rule="evenodd" d="M32.0004 29.1299L17.5104 37.3799C16.9175 37.8232 16.1034 37.8232 15.5104 37.3799L15.4404 37.4499L15.5104 37.5199C16.1023 37.9666 16.9186 37.9666 17.5104 37.5199L32.1204 29.2199L32.0004 29.1299Z" fill="black"/>
<path opacity="0.12" fill-rule="evenodd" clip-rule="evenodd" d="M15.4401 37.3199C15.1142 36.9288 14.9497 36.4281 14.9801 35.9199V36.0699C14.9497 36.5781 15.1142 37.0788 15.4401 37.4699L15.5101 37.3999L15.4401 37.3199Z" fill="black"/>
<path opacity="0.12" fill-rule="evenodd" clip-rule="evenodd" d="M37 26.3L32 29.13L32.09 29.22L37 26.44C37.5671 26.1736 37.9485 25.6244 38 25C37.886 25.5648 37.5167 26.045 37 26.3Z" fill="black"/>
<path opacity="0.25" fill-rule="evenodd" clip-rule="evenodd" d="M17.51 12.62L37 23.7C37.5167 23.955 37.886 24.4351 38 25C37.9485 24.3756 37.5671 23.8264 37 23.56L17.51 12.48C16.12 11.68 15 12.34 15 13.94V14.09C15 12.49 16.12 11.83 17.51 12.62Z" fill="black"/>
<path fill-rule="evenodd" clip-rule="evenodd" d="M51.7297 18.1705C51.177 18.3909 50.5843 18.4931 49.9897 18.4705C49.0645 18.5487 48.1513 18.2185 47.4899 17.5668C46.8286 16.915 46.4851 16.0068 46.5497 15.0805C46.4993 14.1147 46.8638 13.1733 47.5514 12.4932C48.2391 11.8132 49.1845 11.4593 50.1497 11.5205C50.7117 11.5001 51.2713 11.6025 51.7897 11.8205L51.5197 12.8205C51.1025 12.6433 50.653 12.5547 50.1997 12.5605C49.5487 12.5229 48.9137 12.7707 48.4603 13.2394C48.007 13.7081 47.7804 14.3511 47.8397 15.0005C47.7733 15.6489 47.9965 16.2935 48.4496 16.762C48.9027 17.2305 49.5395 17.4752 50.1897 17.4305C50.6486 17.4374 51.1042 17.3524 51.5297 17.1805L51.7297 18.1705ZM54.2896 13.5V15.5H54.4696L55.9696 13.5H57.4296L55.4896 15.64C56.1596 15.74 56.5696 16.27 56.8996 17.05C56.9463 17.1622 56.996 17.2919 57.0489 17.4301C57.1657 17.735 57.2982 18.0809 57.4496 18.37H56.1696C55.9945 18.0485 55.8441 17.7142 55.7196 17.37C55.5869 16.7777 55.0565 16.3601 54.4496 16.37H54.2896V18.37H53.0596V13.5H54.2896ZM61.2605 17.8296L61.3405 18.3696H62.4305C62.378 17.9819 62.3546 17.5908 62.3605 17.1996V15.3596C62.4178 14.8136 62.2255 14.2709 61.8373 13.8827C61.4491 13.4945 60.9065 13.3023 60.3605 13.3596C59.7463 13.3464 59.1394 13.4947 58.6005 13.7896L58.8405 14.5896C59.2371 14.3547 59.6895 14.2304 60.1505 14.2296C61.0205 14.2296 61.1505 14.7596 61.1505 15.0796V15.1596C59.3505 15.1496 58.2605 15.7696 58.2605 16.9996C58.2476 17.4101 58.4107 17.8066 58.7087 18.0893C59.0067 18.372 59.4112 18.514 59.8205 18.4796C60.3747 18.4949 60.9054 18.2553 61.2605 17.8296ZM59.4807 16.91C59.4807 16.17 60.3107 16 61.1807 16V16.67C61.1941 16.7595 61.1941 16.8505 61.1807 16.94C61.0341 17.3614 60.6261 17.6348 60.1807 17.61C59.9898 17.6289 59.8006 17.5613 59.665 17.4257C59.5294 17.2901 59.4618 17.1008 59.4807 16.91ZM65.0602 13.5V15C65.0602 15.58 65.2702 15.92 65.9102 15.92C66.2078 15.9161 66.4973 15.822 66.7402 15.65V13.5H68.0002V18.37H66.7402V16.5C66.3535 16.7202 65.9153 16.8341 65.4702 16.83C65.0188 16.877 64.5707 16.7143 64.2546 16.3885C63.9386 16.0627 63.7895 15.6098 63.8502 15.16V13.5H65.0602ZM72.3796 17.8298L72.4596 18.3698H73.5896C73.537 17.9821 73.5136 17.591 73.5196 17.1998V15.3898C73.5769 14.8438 73.3847 14.3012 72.9965 13.913C72.6083 13.5248 72.0656 13.3325 71.5196 13.3898C70.9054 13.3762 70.2984 13.5245 69.7596 13.8198L69.9996 14.6198C70.3814 14.3808 70.8194 14.2463 71.2696 14.2298C72.1396 14.2298 72.2696 14.7598 72.2696 15.0798V15.1598C70.4696 15.1498 69.3796 15.7698 69.3796 16.9998C69.3668 17.4104 69.5298 17.8069 69.8278 18.0896C70.1258 18.3723 70.5303 18.5143 70.9396 18.4798C71.4938 18.4951 72.0245 18.2556 72.3796 17.8298ZM70.5997 16.91C70.5997 16.17 71.4297 16 72.2997 16V16.67C72.3136 16.7595 72.3136 16.8505 72.2997 16.94C72.1532 17.3614 71.7452 17.6348 71.2997 17.61C71.1098 17.6253 70.9228 17.5564 70.788 17.4217C70.6533 17.287 70.5845 17.0999 70.5997 16.91ZM78.8004 13.5V14.45H77.3404V18.37H76.1104V14.45H74.6504V13.5H78.8004ZM81.2402 15V13.5H79.9902V18.37C80.4702 18.44 80.9502 18.44 81.4702 18.44C82.252 18.4859 83.0294 18.2942 83.7002 17.89C84.0946 17.6117 84.3206 17.1522 84.3002 16.67C84.3002 15.38 83.1202 15 82.0002 15C81.7473 14.9789 81.4931 14.9789 81.2402 15ZM81.8102 17.5002C81.6205 17.5135 81.43 17.5135 81.2402 17.5002V15.7502C81.4232 15.7337 81.6073 15.7337 81.7902 15.7502C82.3402 15.7502 83.1002 15.9302 83.1002 16.6202C83.1002 17.3102 82.3802 17.5002 81.8102 17.5002ZM89.3399 13.5V15.25C89.3399 16.02 89.3399 16.54 89.2699 17.25C89.3554 17.0625 89.4291 16.8977 89.4983 16.7429L89.4983 16.7428C89.6394 16.4269 89.7622 16.1522 89.9299 15.81L91.1299 13.53H92.6199V18.4H91.4799V16.63C91.4799 15.85 91.4799 15.49 91.5599 14.57C91.3199 15.15 91.1599 15.5 90.9199 15.97C90.7256 16.3382 90.5156 16.7482 90.3006 17.168L90.3003 17.1685C90.095 17.5694 89.8851 17.9793 89.6799 18.37H88.1699V13.5H89.3399ZM95.4 15.4699H94.81V16.2199H95.41C96.1 16.2199 96.63 16.5099 96.63 16.8899C96.63 17.2699 96.31 17.5499 95.63 17.5499C95.1607 17.5441 94.699 17.4313 94.28 17.2199L94 17.9999C94.5265 18.3042 95.1219 18.4694 95.73 18.4799C96.73 18.4799 98 18.1299 98 16.9999C97.9624 16.3087 97.382 15.7726 96.69 15.7899C97.2615 15.7215 97.7075 15.263 97.76 14.6898C97.76 13.7198 96.76 13.3998 95.94 13.3998C95.3008 13.3901 94.6713 13.5562 94.12 13.8798L94.38 14.6098C94.7421 14.3892 95.1561 14.2684 95.58 14.2598C96.13 14.2598 96.46 14.4998 96.46 14.8498C96.46 15.1999 96.07 15.4699 95.4 15.4699Z" fill="white"/>
<defs>
<linearGradient id="paint0_linear" x1="22.4796" y1="-2.58259" x2="2.64462" y2="2.67746" gradientUnits="userSpaceOnUse">
<stop stop-color="#00A0FF"/>
<stop offset="0.01" stop-color="#00A1FF"/>
<stop offset="0.26" stop-color="#00BEFF"/>
<stop offset="0.51" stop-color="#00D2FF"/>
<stop offset="0.76" stop-color="#00DFFF"/>
<stop offset="1" stop-color="#00E3FF"/>
</linearGradient>
<linearGradient id="paint1_linear" x1="38.8304" y1="14.7999" x2="14.6404" y2="14.7999" gradientUnits="userSpaceOnUse">
<stop stop-color="#FFE000"/>
<stop offset="0.41" stop-color="#FFBD00"/>
<stop offset="0.78" stop-color="#FFA500"/>
<stop offset="1" stop-color="#FF9C00"/>
</linearGradient>
<linearGradient id="paint2_linear" x1="15.0743" y1="18.5275" x2="-0.86209" y2="45.3341" gradientUnits="userSpaceOnUse">
<stop stop-color="#FF3A44"/>
<stop offset="1" stop-color="#C31162"/>
</linearGradient>
<linearGradient id="paint3_linear" x1="5.70969" y1="9.09606" x2="12.823" y2="21.0665" gradientUnits="userSpaceOnUse">
<stop stop-color="#32A071"/>
<stop offset="0.07" stop-color="#2DA771"/>
<stop offset="0.48" stop-color="#15CF74"/>
<stop offset="0.8" stop-color="#06E775"/>
<stop offset="1" stop-color="#00F076"/>
</linearGradient>
</defs>
</svg>
