<svg width="570" height="375" viewBox="0 0 570 375" fill="none" xmlns="http://www.w3.org/2000/svg">
<path d="M40.387 4.12754C40.6215 1.93088 42.5923 0.340214 44.7889 0.574674L534.004 52.7908C536.203 53.0255 537.794 55.0004 537.556 57.1993L503.457 371.787C503.237 373.818 501.521 375.357 499.478 375.356L5.24854 375.003C2.87255 375.002 1.02181 372.941 1.27398 370.579L40.387 4.12754Z" fill="#FCF0E4"/>
<g filter="url(#filter0_d)">
<path d="M80.2275 38.5674C80.2275 36.3582 82.0184 34.5674 84.2275 34.5674H566.228C568.437 34.5674 570.228 36.3582 570.228 38.5674V339.767C570.228 341.977 568.437 343.767 566.228 343.767H84.2275C82.0184 343.767 80.2275 341.977 80.2275 339.767V38.5674Z" fill="white"/>
</g>
<rect x="131.5" y="197.5" width="388" height="57" rx="3.5" fill="white" stroke="#F6E3D1"/>
<path d="M150.072 218.781L154.721 230.383L159.369 218.781H161.801V233H159.926V227.463L160.102 221.486L155.434 233H153.998L149.34 221.516L149.525 227.463V233H147.65V218.781H150.072ZM173.461 233H171.654V228.488H166.801V233H164.984V222.434H166.801V227.014H171.654V222.434H173.461V233ZM180.756 233.195C179.324 233.195 178.158 232.727 177.26 231.789C176.361 230.845 175.912 229.585 175.912 228.01V227.678C175.912 226.63 176.111 225.695 176.508 224.875C176.911 224.048 177.471 223.404 178.188 222.941C178.91 222.473 179.691 222.238 180.531 222.238C181.905 222.238 182.973 222.691 183.734 223.596C184.496 224.501 184.877 225.796 184.877 227.482V228.234H177.719C177.745 229.276 178.048 230.119 178.627 230.764C179.213 231.402 179.955 231.721 180.854 231.721C181.492 231.721 182.032 231.59 182.475 231.33C182.917 231.07 183.305 230.725 183.637 230.295L184.74 231.154C183.855 232.515 182.527 233.195 180.756 233.195ZM180.531 223.723C179.802 223.723 179.19 223.99 178.695 224.523C178.201 225.051 177.895 225.793 177.777 226.75H183.07V226.613C183.018 225.695 182.771 224.986 182.328 224.484C181.885 223.977 181.286 223.723 180.531 223.723ZM200.57 233H198.764V228.488H193.91V233H192.094V222.434H193.91V227.014H198.764V222.434H200.57V233ZM206.938 230.354L209.398 222.434H211.332L207.084 234.631C206.426 236.389 205.382 237.268 203.949 237.268L203.607 237.238L202.934 237.111V235.646L203.422 235.686C204.034 235.686 204.509 235.562 204.848 235.314C205.193 235.067 205.476 234.615 205.697 233.957L206.098 232.883L202.328 222.434H204.301L206.938 230.354ZM221.381 228.41H220.111V233H218.305V228.41H217.035L214.076 233H211.791L215.57 227.531L212.152 222.434H214.34L217.064 226.809H218.305V222.434H220.111V226.809H221.342L224.086 222.434H226.273L222.846 227.541L226.625 233H224.34L221.381 228.41ZM236.898 233H235.092V228.488H230.238V233H228.422V222.434H230.238V227.014H235.092V222.434H236.898V233ZM239.33 227.619C239.33 226.584 239.532 225.653 239.936 224.826C240.346 223.999 240.912 223.361 241.635 222.912C242.364 222.463 243.194 222.238 244.125 222.238C245.564 222.238 246.726 222.736 247.611 223.732C248.503 224.729 248.949 226.053 248.949 227.707V227.834C248.949 228.863 248.751 229.787 248.354 230.607C247.963 231.421 247.4 232.056 246.664 232.512C245.935 232.967 245.095 233.195 244.145 233.195C242.712 233.195 241.55 232.697 240.658 231.701C239.773 230.705 239.33 229.387 239.33 227.746V227.619ZM241.146 227.834C241.146 229.006 241.417 229.947 241.957 230.656C242.504 231.366 243.233 231.721 244.145 231.721C245.062 231.721 245.792 231.363 246.332 230.646C246.872 229.924 247.143 228.915 247.143 227.619C247.143 226.46 246.866 225.523 246.312 224.807C245.766 224.084 245.036 223.723 244.125 223.723C243.233 223.723 242.514 224.077 241.967 224.787C241.42 225.497 241.146 226.512 241.146 227.834Z" fill="black"/>
<rect x="254" y="206" width="1" height="36" fill="#242424"/>
<rect x="223" y="126" width="296" height="20" rx="4" fill="#FCF0E4"/>
<circle cx="167" cy="121" r="36" fill="#F6E3D1"/>
<rect x="223" y="94" width="142" height="20" rx="4" fill="#FCF0E4"/>
<defs>
<filter id="filter0_d" x="50.2275" y="24.5674" width="530" height="349.2" filterUnits="userSpaceOnUse" color-interpolation-filters="sRGB">
<feFlood flood-opacity="0" result="BackgroundImageFix"/>
<feColorMatrix in="SourceAlpha" type="matrix" values="0 0 0 0 0 0 0 0 0 0 0 0 0 0 0 0 0 0 127 0"/>
<feOffset dx="-10" dy="10"/>
<feGaussianBlur stdDeviation="10"/>
<feColorMatrix type="matrix" values="0 0 0 0 0.808398 0 0 0 0 0.730927 0 0 0 0 0.653455 0 0 0 0.1 0"/>
<feBlend mode="normal" in2="BackgroundImageFix" result="effect1_dropShadow"/>
<feBlend mode="normal" in="SourceGraphic" in2="effect1_dropShadow" result="shape"/>
</filter>
</defs>
</svg>
