<svg width="570" height="375" viewBox="0 0 570 375" fill="none" xmlns="http://www.w3.org/2000/svg">
<path d="M39.5852 4.95909C39.8197 2.76243 41.7905 1.17176 43.9872 1.40622L533.202 53.6224C535.401 53.8571 536.992 55.832 536.754 58.0308L502.656 372.618C502.435 374.65 500.719 376.189 498.676 376.187L4.44678 375.835C2.07079 375.833 0.220052 373.773 0.472222 371.41L39.5852 4.95909Z" fill="#FCF0E4"/>
<g filter="url(#filter0_d)">
<path d="M79.4258 39.3989C79.4258 37.1898 81.2166 35.3989 83.4258 35.3989H565.426C567.635 35.3989 569.426 37.1898 569.426 39.3989V340.599C569.426 342.808 567.635 344.599 565.426 344.599H83.4258C81.2166 344.599 79.4258 342.808 79.4258 340.599V39.3989Z" fill="white"/>
</g>
<circle cx="156.5" cy="100.5" r="26.5" fill="#F6E3D1"/>
<rect x="198" y="81" width="80" height="14" rx="4" fill="#FCF0E4"/>
<rect x="198" y="81" width="130" height="14" rx="4" fill="#FCF0E4"/>
<path d="M286.428 111.626H287.729C288.385 111.62 288.903 111.45 289.284 111.116C289.671 110.782 289.864 110.299 289.864 109.666C289.864 109.057 289.703 108.585 289.381 108.251C289.064 107.911 288.578 107.741 287.922 107.741C287.348 107.741 286.876 107.908 286.507 108.242C286.138 108.57 285.953 109.001 285.953 109.534H283.817C283.817 108.878 283.99 108.28 284.336 107.741C284.688 107.202 285.174 106.783 285.795 106.484C286.422 106.18 287.122 106.027 287.896 106.027C289.173 106.027 290.175 106.35 290.901 106.994C291.634 107.633 292 108.523 292 109.666C292 110.24 291.815 110.782 291.446 111.292C291.083 111.796 290.611 112.177 290.031 112.435C290.734 112.675 291.268 113.053 291.631 113.568C292 114.084 292.185 114.699 292.185 115.414C292.185 116.562 291.789 117.477 290.998 118.156C290.213 118.836 289.179 119.176 287.896 119.176C286.665 119.176 285.657 118.848 284.872 118.191C284.087 117.535 283.694 116.662 283.694 115.572H285.83C285.83 116.135 286.018 116.592 286.393 116.943C286.773 117.295 287.283 117.471 287.922 117.471C288.584 117.471 289.105 117.295 289.486 116.943C289.867 116.592 290.058 116.082 290.058 115.414C290.058 114.74 289.858 114.222 289.46 113.858C289.062 113.495 288.47 113.313 287.685 113.313H286.428V111.626ZM301.413 114.438H303.004V116.152H301.413V119H299.277V116.152H293.749L293.688 114.852L299.207 106.203H301.413V114.438ZM295.929 114.438H299.277V109.095L299.119 109.376L295.929 114.438ZM304.99 112.654L305.685 106.203H312.558V108.049H307.46L307.108 111.107C307.7 110.768 308.368 110.598 309.112 110.598C310.331 110.598 311.277 110.987 311.951 111.767C312.631 112.546 312.971 113.595 312.971 114.913C312.971 116.214 312.596 117.251 311.846 118.024C311.096 118.792 310.067 119.176 308.761 119.176C307.589 119.176 306.616 118.845 305.843 118.183C305.075 117.515 304.659 116.636 304.595 115.546H306.66C306.742 116.167 306.965 116.645 307.328 116.979C307.691 117.307 308.166 117.471 308.752 117.471C309.408 117.471 309.918 117.236 310.281 116.768C310.65 116.299 310.835 115.66 310.835 114.852C310.835 114.072 310.633 113.457 310.229 113.006C309.824 112.549 309.268 112.32 308.559 112.32C308.172 112.32 307.844 112.373 307.574 112.479C307.305 112.578 307.012 112.777 306.695 113.076L304.99 112.654Z" fill="#34BFA2"/>
<path d="M272.161 110.302C273.315 110.194 274.405 110.133 275.148 110.179C276.602 110.271 277.108 110.778 276.981 112.377C276.886 113.637 276.665 115.788 276.475 117.494C276.333 118.769 275.401 119 274.026 119C271.292 119 266.599 118.047 266.599 118.047L266.615 110.901C266.615 110.901 266.741 110.84 266.852 110.809C269.108 110.203 270.374 107.035 270.873 105.786C270.905 105.705 270.934 105.632 270.96 105.569C271.387 104.524 273.347 105 273.094 106.337C272.936 107.182 272.493 108.996 272.161 110.302Z" fill="#34BFA2"/>
<path d="M262.79 110.363H264.797C265.224 110.363 265.587 110.702 265.587 111.132V117.847C265.587 118.278 265.24 118.616 264.797 118.616H262.79C262.348 118.616 262 118.278 262 117.847V111.132C262 110.702 262.348 110.363 262.79 110.363Z" fill="#34BFA2"/>
<path d="M226.741 119H224.614V108.726L221.477 109.798V107.996L226.469 106.159H226.741V119ZM239.793 119H231.188V117.532L235.451 112.883C236.066 112.197 236.503 111.626 236.761 111.169C237.024 110.706 237.156 110.243 237.156 109.78C237.156 109.171 236.983 108.679 236.638 108.304C236.298 107.929 235.838 107.741 235.258 107.741C234.566 107.741 234.03 107.952 233.649 108.374C233.269 108.796 233.078 109.373 233.078 110.105H230.942C230.942 109.326 231.118 108.626 231.47 108.005C231.827 107.378 232.334 106.892 232.99 106.546C233.652 106.2 234.414 106.027 235.275 106.027C236.518 106.027 237.496 106.341 238.211 106.968C238.932 107.589 239.292 108.45 239.292 109.552C239.292 110.19 239.11 110.861 238.747 111.564C238.39 112.262 237.801 113.056 236.98 113.946L233.852 117.295H239.793V119Z" fill="#FFAA4D"/>
<path fill-rule="evenodd" clip-rule="evenodd" d="M206.397 104.277L208.607 108.647L213.469 109.353C214.183 109.488 214.149 110.227 213.537 110.597L210.273 113.724L210.953 117.892C211.191 119.001 210.749 119.304 209.763 118.867L205.989 116.85L202.25 118.867C201.264 119.304 200.822 119.001 201.06 117.892L201.74 113.724L198.476 110.597C197.864 110.227 197.796 109.488 198.544 109.353L203.406 108.647L205.581 104.277C205.785 103.908 206.227 103.908 206.397 104.277Z" fill="#FFAA4D"/>
<path d="M141.235 175H137.69V157.876L132.461 159.663V156.66L140.781 153.599H141.235V175ZM162.549 166.021C162.549 169.087 161.973 171.401 160.82 172.964C159.678 174.517 157.935 175.293 155.591 175.293C153.286 175.293 151.548 174.536 150.376 173.022C149.214 171.499 148.618 169.248 148.589 166.27V162.578C148.589 159.512 149.16 157.212 150.303 155.679C151.455 154.146 153.208 153.379 155.562 153.379C157.896 153.379 159.634 154.126 160.776 155.62C161.929 157.114 162.52 159.351 162.549 162.329V166.021ZM158.989 162.036C158.989 160.034 158.716 158.569 158.169 157.642C157.622 156.704 156.753 156.235 155.562 156.235C154.399 156.235 153.545 156.68 152.998 157.568C152.451 158.447 152.163 159.824 152.134 161.699V166.533C152.134 168.525 152.412 170.01 152.969 170.986C153.525 171.963 154.399 172.451 155.591 172.451C156.733 172.451 157.578 172.002 158.125 171.104C158.672 170.195 158.96 168.779 158.989 166.855V162.036ZM187.07 166.021C187.07 169.087 186.494 171.401 185.342 172.964C184.199 174.517 182.456 175.293 180.112 175.293C177.808 175.293 176.069 174.536 174.897 173.022C173.735 171.499 173.14 169.248 173.11 166.27V162.578C173.11 159.512 173.682 157.212 174.824 155.679C175.977 154.146 177.729 153.379 180.083 153.379C182.417 153.379 184.155 154.126 185.298 155.62C186.45 157.114 187.041 159.351 187.07 162.329V166.021ZM183.511 162.036C183.511 160.034 183.237 158.569 182.69 157.642C182.144 156.704 181.274 156.235 180.083 156.235C178.921 156.235 178.066 156.68 177.52 157.568C176.973 158.447 176.685 159.824 176.655 161.699V166.533C176.655 168.525 176.934 170.01 177.49 170.986C178.047 171.963 178.921 172.451 180.112 172.451C181.255 172.451 182.1 172.002 182.646 171.104C183.193 170.195 183.481 168.779 183.511 166.855V162.036ZM204.121 166.021C204.121 169.087 203.545 171.401 202.393 172.964C201.25 174.517 199.507 175.293 197.163 175.293C194.858 175.293 193.12 174.536 191.948 173.022C190.786 171.499 190.19 169.248 190.161 166.27V162.578C190.161 159.512 190.732 157.212 191.875 155.679C193.027 154.146 194.78 153.379 197.134 153.379C199.468 153.379 201.206 154.126 202.349 155.62C203.501 157.114 204.092 159.351 204.121 162.329V166.021ZM200.562 162.036C200.562 160.034 200.288 158.569 199.741 157.642C199.194 156.704 198.325 156.235 197.134 156.235C195.972 156.235 195.117 156.68 194.57 157.568C194.023 158.447 193.735 159.824 193.706 161.699V166.533C193.706 168.525 193.984 170.01 194.541 170.986C195.098 171.963 195.972 172.451 197.163 172.451C198.306 172.451 199.15 172.002 199.697 171.104C200.244 170.195 200.532 168.779 200.562 166.855V162.036ZM221.172 166.021C221.172 169.087 220.596 171.401 219.443 172.964C218.301 174.517 216.558 175.293 214.214 175.293C211.909 175.293 210.171 174.536 208.999 173.022C207.837 171.499 207.241 169.248 207.212 166.27V162.578C207.212 159.512 207.783 157.212 208.926 155.679C210.078 154.146 211.831 153.379 214.185 153.379C216.519 153.379 218.257 154.126 219.399 155.62C220.552 157.114 221.143 159.351 221.172 162.329V166.021ZM217.612 162.036C217.612 160.034 217.339 158.569 216.792 157.642C216.245 156.704 215.376 156.235 214.185 156.235C213.022 156.235 212.168 156.68 211.621 157.568C211.074 158.447 210.786 159.824 210.757 161.699V166.533C210.757 168.525 211.035 170.01 211.592 170.986C212.148 171.963 213.022 172.451 214.214 172.451C215.356 172.451 216.201 172.002 216.748 171.104C217.295 170.195 217.583 168.779 217.612 166.855V162.036ZM242.192 171.616H237.476V175H233.784V171.616H230.781V168.643H233.784V167.075H230.781V164.102H233.784V153.672H241.943C244.297 153.672 246.177 154.287 247.583 155.518C248.989 156.738 249.692 158.364 249.692 160.396C249.692 162.466 249.023 164.092 247.686 165.273C246.348 166.445 244.487 167.046 242.104 167.075H237.476V168.643H242.192V171.616ZM237.476 164.102H241.885C243.213 164.102 244.229 163.794 244.932 163.179C245.635 162.563 245.986 161.646 245.986 160.425C245.986 159.331 245.64 158.438 244.946 157.744C244.263 157.051 243.315 156.689 242.104 156.66H237.476V164.102Z" fill="#FFAA4D"/>
<rect x="133" y="193" width="231" height="14" rx="4" fill="#FCF0E4"/>
<rect x="133" y="219" width="134" height="14" rx="4" fill="#FCF0E4"/>
<rect x="133" y="245" width="188" height="14" rx="4" fill="#FCF0E4"/>
<rect x="133" y="271" width="166" height="33" rx="6" fill="#FFAA4D"/>
<path d="M153.887 292H152.164V283.441H147.782V292H146.06V282.047H153.887V292ZM162.295 288.377C162.295 289.521 162.035 290.435 161.516 291.118C160.996 291.797 160.299 292.137 159.424 292.137C158.613 292.137 157.963 291.87 157.476 291.337V294.844H155.814V284.604H157.346L157.414 285.355C157.902 284.763 158.565 284.467 159.403 284.467C160.306 284.467 161.012 284.804 161.522 285.479C162.037 286.148 162.295 287.08 162.295 288.274V288.377ZM160.641 288.233C160.641 287.495 160.493 286.91 160.196 286.477C159.905 286.044 159.485 285.827 158.938 285.827C158.259 285.827 157.772 286.107 157.476 286.668V289.949C157.776 290.523 158.269 290.811 158.952 290.811C159.481 290.811 159.893 290.599 160.189 290.175C160.49 289.746 160.641 289.099 160.641 288.233ZM166.964 292.137C165.911 292.137 165.057 291.806 164.4 291.146C163.749 290.48 163.423 289.596 163.423 288.493V288.288C163.423 287.55 163.564 286.891 163.847 286.312C164.134 285.729 164.535 285.276 165.05 284.952C165.565 284.629 166.139 284.467 166.772 284.467C167.78 284.467 168.557 284.788 169.104 285.431C169.655 286.073 169.931 286.982 169.931 288.158V288.828H165.098C165.148 289.439 165.351 289.922 165.706 290.277C166.066 290.633 166.517 290.811 167.06 290.811C167.821 290.811 168.44 290.503 168.919 289.888L169.814 290.742C169.518 291.184 169.122 291.528 168.625 291.774C168.133 292.016 167.579 292.137 166.964 292.137ZM166.766 285.8C166.31 285.8 165.941 285.959 165.658 286.278C165.38 286.597 165.202 287.042 165.125 287.611H168.29V287.488C168.254 286.932 168.105 286.513 167.846 286.23C167.586 285.943 167.226 285.8 166.766 285.8ZM171.257 290.674C171.717 290.159 172.025 289.671 172.18 289.211C172.339 288.746 172.435 288.154 172.467 287.434L172.562 284.604H177.696V290.674H178.722V294.201H177.067V292H172.323V294.201H170.642L170.648 290.674H171.257ZM173.205 290.674H176.042V286.032H174.176L174.128 287.447C174.064 288.805 173.757 289.881 173.205 290.674ZM186.193 284.604V292H184.532V285.943H182.44L182.304 288.521C182.217 289.76 181.978 290.651 181.586 291.193C181.199 291.731 180.604 292 179.802 292H179.289L179.282 290.619L179.624 290.585C179.989 290.535 180.253 290.314 180.417 289.922C180.586 289.525 180.693 288.805 180.738 287.762L180.875 284.604H186.193ZM187.649 288.233C187.649 287.509 187.793 286.857 188.08 286.278C188.367 285.695 188.771 285.248 189.29 284.938C189.81 284.624 190.407 284.467 191.081 284.467C192.079 284.467 192.888 284.788 193.508 285.431C194.132 286.073 194.469 286.925 194.52 287.987L194.526 288.377C194.526 289.106 194.385 289.758 194.103 290.332C193.825 290.906 193.424 291.351 192.899 291.665C192.38 291.979 191.778 292.137 191.095 292.137C190.051 292.137 189.215 291.79 188.586 291.098C187.962 290.4 187.649 289.473 187.649 288.315V288.233ZM189.311 288.377C189.311 289.138 189.468 289.735 189.782 290.168C190.097 290.596 190.534 290.811 191.095 290.811C191.655 290.811 192.09 290.592 192.4 290.154C192.715 289.717 192.872 289.076 192.872 288.233C192.872 287.486 192.71 286.894 192.387 286.456C192.068 286.019 191.632 285.8 191.081 285.8C190.539 285.8 190.108 286.016 189.789 286.449C189.47 286.878 189.311 287.52 189.311 288.377ZM202.292 289.026H201.41V292H199.749V289.026H198.874L197.172 292H195.135L197.589 288.151L195.265 284.604H197.295L198.97 287.509H199.749V284.604H201.41V287.509H202.196L203.878 284.604H205.908L203.591 288.131L206.059 292H203.994L202.292 289.026ZM211.705 284.604H213.359V292H211.705V287.064L208.807 292H207.152V284.604H208.807V289.539L211.705 284.604ZM220.947 285.923H218.548V292H216.887V285.923H214.515V284.604H220.947V285.923ZM223.846 286.955H225.473C226.079 286.955 226.607 287.06 227.059 287.27C227.51 287.479 227.852 287.773 228.084 288.151C228.321 288.53 228.439 288.969 228.439 289.471C228.439 290.232 228.171 290.842 227.633 291.303C227.095 291.763 226.38 291.995 225.486 292H222.185V284.604H223.846V286.955ZM223.846 288.288V290.674H225.466C225.871 290.674 226.19 290.574 226.423 290.373C226.66 290.168 226.778 289.879 226.778 289.505C226.778 289.131 226.662 288.837 226.43 288.623C226.202 288.404 225.892 288.293 225.5 288.288H223.846ZM238.857 286.627C238.857 286.955 238.757 287.258 238.557 287.536C238.361 287.81 238.083 288.028 237.723 288.192C238.57 288.489 238.994 289.061 238.994 289.908C238.994 290.587 238.718 291.13 238.167 291.535C237.616 291.936 236.877 292.137 235.952 292.137C235.387 292.137 234.872 292.043 234.407 291.856C233.942 291.665 233.58 291.396 233.32 291.05C233.061 290.699 232.931 290.284 232.931 289.806H234.585C234.585 290.106 234.719 290.359 234.988 290.564C235.257 290.765 235.597 290.865 236.007 290.865C236.412 290.865 236.734 290.772 236.971 290.585C237.212 290.394 237.333 290.145 237.333 289.84C237.333 289.48 237.228 289.22 237.019 289.061C236.809 288.901 236.485 288.821 236.048 288.821H234.858V287.625H236.089C236.832 287.616 237.203 287.311 237.203 286.709C237.203 286.408 237.096 286.174 236.882 286.005C236.668 285.836 236.374 285.752 236 285.752C235.635 285.752 235.328 285.843 235.077 286.025C234.826 286.203 234.701 286.429 234.701 286.702H233.047C233.047 286.05 233.32 285.517 233.867 285.103C234.414 284.683 235.109 284.474 235.952 284.474C236.868 284.474 237.581 284.66 238.092 285.034C238.602 285.408 238.857 285.939 238.857 286.627ZM244.825 292C244.752 291.859 244.688 291.629 244.634 291.31C244.105 291.861 243.458 292.137 242.692 292.137C241.95 292.137 241.343 291.925 240.874 291.501C240.405 291.077 240.17 290.553 240.17 289.929C240.17 289.14 240.462 288.536 241.045 288.117C241.633 287.693 242.471 287.481 243.561 287.481H244.579V286.996C244.579 286.613 244.472 286.308 244.258 286.08C244.044 285.848 243.718 285.731 243.28 285.731C242.902 285.731 242.592 285.827 242.351 286.019C242.109 286.205 241.988 286.445 241.988 286.736H240.327C240.327 286.331 240.462 285.952 240.73 285.602C240.999 285.246 241.364 284.968 241.824 284.768C242.289 284.567 242.806 284.467 243.376 284.467C244.242 284.467 244.932 284.686 245.447 285.123C245.962 285.556 246.227 286.167 246.24 286.955V290.291C246.24 290.956 246.334 291.487 246.521 291.884V292H244.825ZM243 290.804C243.328 290.804 243.636 290.724 243.923 290.564C244.215 290.405 244.433 290.191 244.579 289.922V288.527H243.684C243.068 288.527 242.606 288.634 242.296 288.849C241.986 289.063 241.831 289.366 241.831 289.758C241.831 290.077 241.936 290.332 242.146 290.523C242.36 290.71 242.645 290.804 243 290.804ZM248.011 290.674C248.471 290.159 248.779 289.671 248.934 289.211C249.093 288.746 249.189 288.154 249.221 287.434L249.316 284.604H254.45V290.674H255.476V294.201H253.821V292H249.077V294.201H247.396L247.402 290.674H248.011ZM249.959 290.674H252.796V286.032H250.93L250.882 287.447C250.818 288.805 250.51 289.881 249.959 290.674ZM261.081 292C261.008 291.859 260.944 291.629 260.89 291.31C260.361 291.861 259.714 292.137 258.948 292.137C258.205 292.137 257.599 291.925 257.13 291.501C256.66 291.077 256.426 290.553 256.426 289.929C256.426 289.14 256.717 288.536 257.301 288.117C257.889 287.693 258.727 287.481 259.816 287.481H260.835V286.996C260.835 286.613 260.728 286.308 260.514 286.08C260.299 285.848 259.974 285.731 259.536 285.731C259.158 285.731 258.848 285.827 258.606 286.019C258.365 286.205 258.244 286.445 258.244 286.736H256.583C256.583 286.331 256.717 285.952 256.986 285.602C257.255 285.246 257.62 284.968 258.08 284.768C258.545 284.567 259.062 284.467 259.632 284.467C260.498 284.467 261.188 284.686 261.703 285.123C262.218 285.556 262.482 286.167 262.496 286.955V290.291C262.496 290.956 262.59 291.487 262.776 291.884V292H261.081ZM259.256 290.804C259.584 290.804 259.892 290.724 260.179 290.564C260.47 290.405 260.689 290.191 260.835 289.922V288.527H259.939C259.324 288.527 258.862 288.634 258.552 288.849C258.242 289.063 258.087 289.366 258.087 289.758C258.087 290.077 258.192 290.332 258.401 290.523C258.616 290.71 258.9 290.804 259.256 290.804ZM270.501 292H268.84V289.013H265.962V292H264.301V284.604H265.962V287.687H268.84V284.604H270.501V292ZM276.893 284.604H278.547V292H276.893V287.064L273.994 292H272.34V284.604H273.994V289.539L276.893 284.604ZM283.571 292.137C282.519 292.137 281.664 291.806 281.008 291.146C280.356 290.48 280.03 289.596 280.03 288.493V288.288C280.03 287.55 280.172 286.891 280.454 286.312C280.741 285.729 281.142 285.276 281.657 284.952C282.172 284.629 282.746 284.467 283.38 284.467C284.387 284.467 285.164 284.788 285.711 285.431C286.262 286.073 286.538 286.982 286.538 288.158V288.828H281.705C281.755 289.439 281.958 289.922 282.313 290.277C282.674 290.633 283.125 290.811 283.667 290.811C284.428 290.811 285.048 290.503 285.526 289.888L286.422 290.742C286.126 291.184 285.729 291.528 285.232 291.774C284.74 292.016 284.187 292.137 283.571 292.137ZM283.373 285.8C282.917 285.8 282.548 285.959 282.266 286.278C281.988 286.597 281.81 287.042 281.732 287.611H284.897V287.488C284.861 286.932 284.713 286.513 284.453 286.23C284.193 285.943 283.833 285.8 283.373 285.8Z" fill="white"/>
<defs>
<filter id="filter0_d" x="49.4258" y="25.3989" width="530" height="349.2" filterUnits="userSpaceOnUse" color-interpolation-filters="sRGB">
<feFlood flood-opacity="0" result="BackgroundImageFix"/>
<feColorMatrix in="SourceAlpha" type="matrix" values="0 0 0 0 0 0 0 0 0 0 0 0 0 0 0 0 0 0 127 0"/>
<feOffset dx="-10" dy="10"/>
<feGaussianBlur stdDeviation="10"/>
<feColorMatrix type="matrix" values="0 0 0 0 0.808398 0 0 0 0 0.730927 0 0 0 0 0.653455 0 0 0 0.1 0"/>
<feBlend mode="normal" in2="BackgroundImageFix" result="effect1_dropShadow"/>
<feBlend mode="normal" in="SourceGraphic" in2="effect1_dropShadow" result="shape"/>
</filter>
</defs>
</svg>
