<svg width="570" height="375" viewBox="0 0 570 375" fill="none" xmlns="http://www.w3.org/2000/svg">
<path d="M497.6 4.04332C497.366 1.84665 495.395 0.255985 493.198 0.490445L3.98366 52.7066C1.78445 52.9413 0.193135 54.9162 0.431477 57.115L34.53 371.703C34.7503 373.734 36.4662 375.273 38.5096 375.272L532.739 374.919C535.115 374.917 536.965 372.857 536.713 370.494L497.6 4.04332Z" fill="#FCF0E4"/>
<g filter="url(#filter0_d)">
<path d="M79.4258 38.4831C79.4258 36.274 81.2166 34.4832 83.4258 34.4832H565.426C567.635 34.4832 569.426 36.274 569.426 38.4832V339.683C569.426 341.892 567.635 343.683 565.426 343.683H83.4258C81.2166 343.683 79.4258 341.892 79.4258 339.683V38.4831Z" fill="white"/>
</g>
<mask id="mask0" mask-type="alpha" maskUnits="userSpaceOnUse" x="79" y="34" width="491" height="310">
<path d="M79.4258 38.4831C79.4258 36.274 81.2166 34.4832 83.4258 34.4832H565.426C567.635 34.4832 569.426 36.274 569.426 38.4832V339.683C569.426 341.892 567.635 343.683 565.426 343.683H83.4258C81.2166 343.683 79.4258 341.892 79.4258 339.683V38.4831Z" fill="white"/>
</mask>
<g mask="url(#mask0)">
<circle cx="156.5" cy="72.5" r="26.5" fill="#F6E3D1"/>
<rect x="198" y="53" width="150" height="14" rx="4" fill="#FCF0E4"/>
<rect x="198" y="53" width="80" height="14" rx="4" fill="#FCF0E4"/>
<rect x="198" y="53" width="130" height="14" rx="4" fill="#FCF0E4"/>
<path d="M292.299 85.6123C292.299 87.4521 291.953 88.8408 291.262 89.7783C290.576 90.71 289.53 91.1758 288.124 91.1758C286.741 91.1758 285.698 90.7217 284.995 89.8135C284.298 88.8994 283.94 87.5488 283.923 85.7617V83.5469C283.923 81.707 284.266 80.3271 284.951 79.4072C285.643 78.4873 286.694 78.0273 288.106 78.0273C289.507 78.0273 290.55 78.4756 291.235 79.3721C291.927 80.2686 292.281 81.6104 292.299 83.3975V85.6123ZM290.163 83.2217C290.163 82.0205 289.999 81.1416 289.671 80.585C289.343 80.0225 288.821 79.7412 288.106 79.7412C287.409 79.7412 286.896 80.0078 286.568 80.541C286.24 81.0684 286.067 81.8945 286.05 83.0195V85.9199C286.05 87.1152 286.217 88.0059 286.551 88.5918C286.885 89.1777 287.409 89.4707 288.124 89.4707C288.81 89.4707 289.316 89.2012 289.645 88.6621C289.973 88.1172 290.146 87.2676 290.163 86.1133V83.2217Z" fill="#34BFA2"/>
<path d="M272.161 82.3019C273.315 82.1943 274.405 82.1328 275.148 82.1789C276.602 82.2712 277.108 82.7783 276.981 84.3765C276.886 85.6367 276.665 87.7882 276.475 89.494C276.333 90.7695 275.401 91 274.026 91C271.292 91 266.599 90.0472 266.599 90.0472L266.615 82.9012C266.615 82.9012 266.741 82.8398 266.852 82.809C269.108 82.2028 270.374 79.0348 270.873 77.7859C270.905 77.705 270.934 77.6322 270.96 77.5686C271.387 76.5236 273.347 77 273.094 78.337C272.936 79.1822 272.493 80.9956 272.161 82.3019Z" fill="#34BFA2"/>
<path d="M262.79 82.3634H264.797C265.224 82.3634 265.587 82.7015 265.587 83.1318V89.8475C265.587 90.2778 265.24 90.6159 264.797 90.6159H262.79C262.348 90.6159 262 90.2778 262 89.8475V83.1318C262 82.7015 262.348 82.3634 262.79 82.3634Z" fill="#34BFA2"/>
<path d="M221.529 84.6543L222.224 78.2031H229.097V80.0488H223.999L223.647 83.1074C224.239 82.7676 224.907 82.5977 225.651 82.5977C226.87 82.5977 227.816 82.9873 228.49 83.7666C229.17 84.5459 229.51 85.5947 229.51 86.9131C229.51 88.2139 229.135 89.251 228.385 90.0244C227.635 90.792 226.606 91.1758 225.3 91.1758C224.128 91.1758 223.155 90.8447 222.382 90.1826C221.614 89.5146 221.198 88.6357 221.134 87.5459H223.199C223.281 88.167 223.504 88.6445 223.867 88.9785C224.23 89.3066 224.705 89.4707 225.291 89.4707C225.947 89.4707 226.457 89.2363 226.82 88.7676C227.189 88.2988 227.374 87.6602 227.374 86.8516C227.374 86.0723 227.172 85.457 226.768 85.0059C226.363 84.5488 225.807 84.3203 225.098 84.3203C224.711 84.3203 224.383 84.373 224.113 84.4785C223.844 84.5781 223.551 84.7773 223.234 85.0762L221.529 84.6543Z" fill="#FFAA4D"/>
<path fill-rule="evenodd" clip-rule="evenodd" d="M206.397 76.2773L208.607 80.6475L213.469 81.3534C214.183 81.4879 214.149 82.2274 213.537 82.5972L210.273 85.7235L210.953 89.892C211.191 91.0013 210.749 91.3039 209.763 90.8668L205.989 88.8499L202.25 90.8668C201.264 91.3039 200.822 91.0013 201.06 89.892L201.74 85.7235L198.476 82.5972C197.864 82.2274 197.796 81.4879 198.544 81.3534L203.406 80.6475L205.581 76.2773C205.785 75.9076 206.227 75.9076 206.397 76.2773Z" fill="#FFAA4D"/>
<circle cx="156.5" cy="139.5" r="26.5" fill="#F6E3D1"/>
<rect x="198" y="120" width="80" height="14" rx="4" fill="#FCF0E4"/>
<rect x="198" y="120" width="130" height="14" rx="4" fill="#FCF0E4"/>
<path d="M286.428 150.626H287.729C288.385 150.62 288.903 150.45 289.284 150.116C289.671 149.782 289.864 149.299 289.864 148.666C289.864 148.057 289.703 147.585 289.381 147.251C289.064 146.911 288.578 146.741 287.922 146.741C287.348 146.741 286.876 146.908 286.507 147.242C286.138 147.57 285.953 148.001 285.953 148.534H283.817C283.817 147.878 283.99 147.28 284.336 146.741C284.688 146.202 285.174 145.783 285.795 145.484C286.422 145.18 287.122 145.027 287.896 145.027C289.173 145.027 290.175 145.35 290.901 145.994C291.634 146.633 292 147.523 292 148.666C292 149.24 291.815 149.782 291.446 150.292C291.083 150.796 290.611 151.177 290.031 151.435C290.734 151.675 291.268 152.053 291.631 152.568C292 153.084 292.185 153.699 292.185 154.414C292.185 155.562 291.789 156.477 290.998 157.156C290.213 157.836 289.179 158.176 287.896 158.176C286.665 158.176 285.657 157.848 284.872 157.191C284.087 156.535 283.694 155.662 283.694 154.572H285.83C285.83 155.135 286.018 155.592 286.393 155.943C286.773 156.295 287.283 156.471 287.922 156.471C288.584 156.471 289.105 156.295 289.486 155.943C289.867 155.592 290.058 155.082 290.058 154.414C290.058 153.74 289.858 153.222 289.46 152.858C289.062 152.495 288.47 152.313 287.685 152.313H286.428V150.626ZM301.413 153.438H303.004V155.152H301.413V158H299.277V155.152H293.749L293.688 153.852L299.207 145.203H301.413V153.438ZM295.929 153.438H299.277V148.095L299.119 148.376L295.929 153.438ZM304.99 151.654L305.685 145.203H312.558V147.049H307.46L307.108 150.107C307.7 149.768 308.368 149.598 309.112 149.598C310.331 149.598 311.277 149.987 311.951 150.767C312.631 151.546 312.971 152.595 312.971 153.913C312.971 155.214 312.596 156.251 311.846 157.024C311.096 157.792 310.067 158.176 308.761 158.176C307.589 158.176 306.616 157.845 305.843 157.183C305.075 156.515 304.659 155.636 304.595 154.546H306.66C306.742 155.167 306.965 155.645 307.328 155.979C307.691 156.307 308.166 156.471 308.752 156.471C309.408 156.471 309.918 156.236 310.281 155.768C310.65 155.299 310.835 154.66 310.835 153.852C310.835 153.072 310.633 152.457 310.229 152.006C309.824 151.549 309.268 151.32 308.559 151.32C308.172 151.32 307.844 151.373 307.574 151.479C307.305 151.578 307.012 151.777 306.695 152.076L304.99 151.654Z" fill="#34BFA2"/>
<path d="M272.161 149.302C273.315 149.194 274.405 149.133 275.148 149.179C276.602 149.271 277.108 149.778 276.981 151.377C276.886 152.637 276.665 154.788 276.475 156.494C276.333 157.769 275.401 158 274.026 158C271.292 158 266.599 157.047 266.599 157.047L266.615 149.901C266.615 149.901 266.741 149.84 266.852 149.809C269.108 149.203 270.374 146.035 270.873 144.786C270.905 144.705 270.934 144.632 270.96 144.569C271.387 143.524 273.347 144 273.094 145.337C272.936 146.182 272.493 147.996 272.161 149.302Z" fill="#34BFA2"/>
<path d="M262.79 149.363H264.797C265.224 149.363 265.587 149.702 265.587 150.132V156.847C265.587 157.278 265.24 157.616 264.797 157.616H262.79C262.348 157.616 262 157.278 262 156.847V150.132C262 149.702 262.348 149.363 262.79 149.363Z" fill="#34BFA2"/>
<path d="M226.741 158H224.614V147.726L221.477 148.798V146.996L226.469 145.159H226.741V158ZM239.793 158H231.188V156.532L235.451 151.883C236.066 151.197 236.503 150.626 236.761 150.169C237.024 149.706 237.156 149.243 237.156 148.78C237.156 148.171 236.983 147.679 236.638 147.304C236.298 146.929 235.838 146.741 235.258 146.741C234.566 146.741 234.03 146.952 233.649 147.374C233.269 147.796 233.078 148.373 233.078 149.105H230.942C230.942 148.326 231.118 147.626 231.47 147.005C231.827 146.378 232.334 145.892 232.99 145.546C233.652 145.2 234.414 145.027 235.275 145.027C236.518 145.027 237.496 145.341 238.211 145.968C238.932 146.589 239.292 147.45 239.292 148.552C239.292 149.19 239.11 149.861 238.747 150.564C238.39 151.262 237.801 152.056 236.98 152.946L233.852 156.295H239.793V158Z" fill="#FFAA4D"/>
<path fill-rule="evenodd" clip-rule="evenodd" d="M206.397 143.277L208.607 147.647L213.469 148.353C214.183 148.488 214.149 149.227 213.537 149.597L210.273 152.724L210.953 156.892C211.191 158.001 210.749 158.304 209.763 157.867L205.989 155.85L202.25 157.867C201.264 158.304 200.822 158.001 201.06 156.892L201.74 152.724L198.476 149.597C197.864 149.227 197.796 148.488 198.544 148.353L203.406 147.647L205.581 143.277C205.785 142.908 206.227 142.908 206.397 143.277Z" fill="#FFAA4D"/>
<circle cx="156.5" cy="206.5" r="26.5" fill="#F6E3D1"/>
<rect x="198" y="187" width="150" height="14" rx="4" fill="#FCF0E4"/>
<rect x="198" y="187" width="80" height="14" rx="4" fill="#FCF0E4"/>
<rect x="198" y="187" width="130" height="14" rx="4" fill="#FCF0E4"/>
<path d="M292.562 225H283.958V223.532L288.221 218.883C288.836 218.197 289.272 217.626 289.53 217.169C289.794 216.706 289.926 216.243 289.926 215.78C289.926 215.171 289.753 214.679 289.407 214.304C289.067 213.929 288.607 213.741 288.027 213.741C287.336 213.741 286.8 213.952 286.419 214.374C286.038 214.796 285.848 215.373 285.848 216.105H283.712C283.712 215.326 283.888 214.626 284.239 214.005C284.597 213.378 285.104 212.892 285.76 212.546C286.422 212.2 287.184 212.027 288.045 212.027C289.287 212.027 290.266 212.341 290.98 212.968C291.701 213.589 292.062 214.45 292.062 215.552C292.062 216.19 291.88 216.861 291.517 217.564C291.159 218.262 290.57 219.056 289.75 219.946L286.621 223.295H292.562V225ZM296.658 217.626H297.959C298.615 217.62 299.134 217.45 299.515 217.116C299.901 216.782 300.095 216.299 300.095 215.666C300.095 215.057 299.934 214.585 299.611 214.251C299.295 213.911 298.809 213.741 298.152 213.741C297.578 213.741 297.106 213.908 296.737 214.242C296.368 214.57 296.184 215.001 296.184 215.534H294.048C294.048 214.878 294.221 214.28 294.566 213.741C294.918 213.202 295.404 212.783 296.025 212.484C296.652 212.18 297.353 212.027 298.126 212.027C299.403 212.027 300.405 212.35 301.132 212.994C301.864 213.633 302.23 214.523 302.23 215.666C302.23 216.24 302.046 216.782 301.677 217.292C301.313 217.796 300.842 218.177 300.262 218.435C300.965 218.675 301.498 219.053 301.861 219.568C302.23 220.084 302.415 220.699 302.415 221.414C302.415 222.562 302.02 223.477 301.229 224.156C300.443 224.836 299.409 225.176 298.126 225.176C296.896 225.176 295.888 224.848 295.103 224.191C294.317 223.535 293.925 222.662 293.925 221.572H296.061C296.061 222.135 296.248 222.592 296.623 222.943C297.004 223.295 297.514 223.471 298.152 223.471C298.814 223.471 299.336 223.295 299.717 222.943C300.098 222.592 300.288 222.082 300.288 221.414C300.288 220.74 300.089 220.222 299.69 219.858C299.292 219.495 298.7 219.313 297.915 219.313H296.658V217.626Z" fill="#34BFA2"/>
<path d="M272.161 216.302C273.315 216.194 274.405 216.133 275.148 216.179C276.602 216.271 277.108 216.778 276.981 218.377C276.886 219.637 276.665 221.788 276.475 223.494C276.333 224.769 275.401 225 274.026 225C271.292 225 266.599 224.047 266.599 224.047L266.615 216.901C266.615 216.901 266.741 216.84 266.852 216.809C269.108 216.203 270.374 213.035 270.873 211.786C270.905 211.705 270.934 211.632 270.96 211.569C271.387 210.524 273.347 211 273.094 212.337C272.936 213.182 272.493 214.996 272.161 216.302Z" fill="#34BFA2"/>
<path d="M262.79 216.363H264.797C265.224 216.363 265.587 216.702 265.587 217.132V223.847C265.587 224.278 265.24 224.616 264.797 224.616H262.79C262.348 224.616 262 224.278 262 223.847V217.132C262 216.702 262.348 216.363 262.79 216.363Z" fill="#34BFA2"/>
<path d="M221.529 218.654L222.224 212.203H229.097V214.049H223.999L223.647 217.107C224.239 216.768 224.907 216.598 225.651 216.598C226.87 216.598 227.816 216.987 228.49 217.767C229.17 218.546 229.51 219.595 229.51 220.913C229.51 222.214 229.135 223.251 228.385 224.024C227.635 224.792 226.606 225.176 225.3 225.176C224.128 225.176 223.155 224.845 222.382 224.183C221.614 223.515 221.198 222.636 221.134 221.546H223.199C223.281 222.167 223.504 222.645 223.867 222.979C224.23 223.307 224.705 223.471 225.291 223.471C225.947 223.471 226.457 223.236 226.82 222.768C227.189 222.299 227.374 221.66 227.374 220.852C227.374 220.072 227.172 219.457 226.768 219.006C226.363 218.549 225.807 218.32 225.098 218.32C224.711 218.32 224.383 218.373 224.113 218.479C223.844 218.578 223.551 218.777 223.234 219.076L221.529 218.654ZM238.413 220.438H240.004V222.152H238.413V225H236.277V222.152H230.749L230.688 220.852L236.207 212.203H238.413V220.438ZM232.929 220.438H236.277V215.095L236.119 215.376L232.929 220.438Z" fill="#FFAA4D"/>
<path fill-rule="evenodd" clip-rule="evenodd" d="M206.397 210.277L208.607 214.647L213.469 215.353C214.183 215.488 214.149 216.227 213.537 216.597L210.273 219.724L210.953 223.892C211.191 225.001 210.749 225.304 209.763 224.867L205.989 222.85L202.25 224.867C201.264 225.304 200.822 225.001 201.06 223.892L201.74 219.724L198.476 216.597C197.864 216.227 197.796 215.488 198.544 215.353L203.406 214.647L205.581 210.277C205.785 209.908 206.227 209.908 206.397 210.277Z" fill="#FFAA4D"/>
<circle cx="156.5" cy="273.5" r="26.5" fill="#F6E3D1"/>
<rect x="198" y="254" width="80" height="14" rx="4" fill="#FCF0E4"/>
<path d="M292.475 280.39L287.359 292H285.118L290.225 280.917H283.606V279.203H292.475V280.39ZM302.248 282.578C302.248 283.205 302.087 283.765 301.765 284.257C301.442 284.743 301.003 285.127 300.446 285.408C301.114 285.719 301.627 286.144 301.984 286.683C302.348 287.222 302.529 287.831 302.529 288.511C302.529 289.636 302.148 290.529 301.387 291.191C300.625 291.848 299.611 292.176 298.346 292.176C297.074 292.176 296.055 291.845 295.287 291.183C294.525 290.521 294.145 289.63 294.145 288.511C294.145 287.825 294.326 287.21 294.689 286.665C295.053 286.12 295.562 285.701 296.219 285.408C295.668 285.127 295.231 284.743 294.909 284.257C294.593 283.765 294.435 283.205 294.435 282.578C294.435 281.488 294.786 280.624 295.489 279.985C296.192 279.347 297.142 279.027 298.337 279.027C299.538 279.027 300.49 279.347 301.193 279.985C301.896 280.624 302.248 281.488 302.248 282.578ZM300.394 288.405C300.394 287.772 300.203 287.263 299.822 286.876C299.447 286.483 298.949 286.287 298.328 286.287C297.707 286.287 297.209 286.48 296.834 286.867C296.465 287.254 296.28 287.767 296.28 288.405C296.28 289.032 296.462 289.533 296.825 289.908C297.194 290.283 297.701 290.471 298.346 290.471C298.99 290.471 299.491 290.289 299.849 289.926C300.212 289.562 300.394 289.056 300.394 288.405ZM300.121 282.657C300.121 282.101 299.96 281.644 299.638 281.286C299.315 280.923 298.882 280.741 298.337 280.741C297.792 280.741 297.361 280.914 297.045 281.26C296.729 281.6 296.57 282.065 296.57 282.657C296.57 283.243 296.729 283.709 297.045 284.055C297.367 284.4 297.801 284.573 298.346 284.573C298.891 284.573 299.321 284.4 299.638 284.055C299.96 283.709 300.121 283.243 300.121 282.657ZM311.063 279.142V280.908H310.8C309.604 280.926 308.649 281.254 307.935 281.893C307.22 282.531 306.795 283.437 306.66 284.608C307.346 283.888 308.222 283.527 309.288 283.527C310.419 283.527 311.31 283.926 311.96 284.723C312.616 285.52 312.944 286.548 312.944 287.808C312.944 289.108 312.561 290.163 311.793 290.972C311.031 291.774 310.029 292.176 308.787 292.176C307.51 292.176 306.473 291.704 305.676 290.761C304.885 289.817 304.489 288.581 304.489 287.052V286.322C304.489 284.078 305.034 282.32 306.124 281.049C307.22 279.777 308.793 279.142 310.844 279.142H311.063ZM308.77 285.25C308.301 285.25 307.87 285.382 307.478 285.646C307.091 285.909 306.807 286.261 306.625 286.7V287.351C306.625 288.3 306.824 289.056 307.223 289.618C307.621 290.175 308.137 290.453 308.77 290.453C309.402 290.453 309.903 290.216 310.272 289.741C310.642 289.267 310.826 288.643 310.826 287.869C310.826 287.096 310.639 286.466 310.264 285.979C309.889 285.493 309.391 285.25 308.77 285.25ZM315.221 285.654L315.915 279.203H322.788V281.049H317.69L317.339 284.107C317.931 283.768 318.599 283.598 319.343 283.598C320.562 283.598 321.508 283.987 322.182 284.767C322.861 285.546 323.201 286.595 323.201 287.913C323.201 289.214 322.826 290.251 322.076 291.024C321.326 291.792 320.298 292.176 318.991 292.176C317.819 292.176 316.847 291.845 316.073 291.183C315.306 290.515 314.89 289.636 314.825 288.546H316.891C316.973 289.167 317.195 289.645 317.559 289.979C317.922 290.307 318.396 290.471 318.982 290.471C319.639 290.471 320.148 290.236 320.512 289.768C320.881 289.299 321.065 288.66 321.065 287.852C321.065 287.072 320.863 286.457 320.459 286.006C320.055 285.549 319.498 285.32 318.789 285.32C318.402 285.32 318.074 285.373 317.805 285.479C317.535 285.578 317.242 285.777 316.926 286.076L315.221 285.654Z" fill="#34BFA2"/>
<path d="M272.161 283.302C273.315 283.194 274.405 283.133 275.148 283.179C276.602 283.271 277.108 283.778 276.981 285.377C276.886 286.637 276.665 288.788 276.475 290.494C276.333 291.769 275.401 292 274.026 292C271.292 292 266.599 291.047 266.599 291.047L266.615 283.901C266.615 283.901 266.741 283.84 266.852 283.809C269.108 283.203 270.374 280.035 270.873 278.786C270.905 278.705 270.934 278.632 270.96 278.569C271.387 277.524 273.347 278 273.094 279.337C272.936 280.182 272.493 281.996 272.161 283.302Z" fill="#34BFA2"/>
<path d="M262.79 283.363H264.797C265.224 283.363 265.587 283.702 265.587 284.132V290.847C265.587 291.278 265.24 291.616 264.797 291.616H262.79C262.348 291.616 262 291.278 262 290.847V284.132C262 283.702 262.348 283.363 262.79 283.363Z" fill="#34BFA2"/>
<path d="M227.014 286.647C226.299 287.403 225.464 287.781 224.509 287.781C223.384 287.781 222.487 287.389 221.819 286.604C221.151 285.812 220.817 284.775 220.817 283.492C220.817 282.648 220.987 281.884 221.327 281.198C221.667 280.513 222.15 279.979 222.777 279.599C223.404 279.218 224.131 279.027 224.957 279.027C226.246 279.027 227.269 279.508 228.024 280.469C228.78 281.43 229.158 282.716 229.158 284.327V284.925C229.158 287.233 228.637 288.994 227.594 290.207C226.551 291.42 224.995 292.035 222.927 292.053H222.672V290.286H222.979C224.239 290.269 225.206 289.967 225.88 289.381C226.554 288.789 226.932 287.878 227.014 286.647ZM224.957 286.111C225.385 286.111 225.786 285.988 226.161 285.742C226.536 285.496 226.826 285.156 227.031 284.723V283.888C227.031 282.944 226.838 282.186 226.451 281.611C226.064 281.037 225.563 280.75 224.948 280.75C224.333 280.75 223.841 281.005 223.472 281.515C223.108 282.019 222.927 282.657 222.927 283.431C222.927 284.233 223.111 284.881 223.48 285.373C223.85 285.865 224.342 286.111 224.957 286.111ZM239.248 282.578C239.248 283.205 239.087 283.765 238.765 284.257C238.442 284.743 238.003 285.127 237.446 285.408C238.114 285.719 238.627 286.144 238.984 286.683C239.348 287.222 239.529 287.831 239.529 288.511C239.529 289.636 239.148 290.529 238.387 291.191C237.625 291.848 236.611 292.176 235.346 292.176C234.074 292.176 233.055 291.845 232.287 291.183C231.525 290.521 231.145 289.63 231.145 288.511C231.145 287.825 231.326 287.21 231.689 286.665C232.053 286.12 232.562 285.701 233.219 285.408C232.668 285.127 232.231 284.743 231.909 284.257C231.593 283.765 231.435 283.205 231.435 282.578C231.435 281.488 231.786 280.624 232.489 279.985C233.192 279.347 234.142 279.027 235.337 279.027C236.538 279.027 237.49 279.347 238.193 279.985C238.896 280.624 239.248 281.488 239.248 282.578ZM237.394 288.405C237.394 287.772 237.203 287.263 236.822 286.876C236.447 286.483 235.949 286.287 235.328 286.287C234.707 286.287 234.209 286.48 233.834 286.867C233.465 287.254 233.28 287.767 233.28 288.405C233.28 289.032 233.462 289.533 233.825 289.908C234.194 290.283 234.701 290.471 235.346 290.471C235.99 290.471 236.491 290.289 236.849 289.926C237.212 289.562 237.394 289.056 237.394 288.405ZM237.121 282.657C237.121 282.101 236.96 281.644 236.638 281.286C236.315 280.923 235.882 280.741 235.337 280.741C234.792 280.741 234.361 280.914 234.045 281.26C233.729 281.6 233.57 282.065 233.57 282.657C233.57 283.243 233.729 283.709 234.045 284.055C234.367 284.4 234.801 284.573 235.346 284.573C235.891 284.573 236.321 284.4 236.638 284.055C236.96 283.709 237.121 283.243 237.121 282.657Z" fill="#FFAA4D"/>
<path fill-rule="evenodd" clip-rule="evenodd" d="M206.397 277.277L208.607 281.647L213.469 282.353C214.183 282.488 214.149 283.227 213.537 283.597L210.273 286.724L210.953 290.892C211.191 292.001 210.749 292.304 209.763 291.867L205.989 289.85L202.25 291.867C201.264 292.304 200.822 292.001 201.06 290.892L201.74 286.724L198.476 283.597C197.864 283.227 197.796 282.488 198.544 282.353L203.406 281.647L205.581 277.277C205.785 276.908 206.227 276.908 206.397 277.277Z" fill="#FFAA4D"/>
<circle cx="156.5" cy="340.5" r="26.5" fill="#F6E3D1"/>
<rect x="198" y="321" width="150" height="14" rx="4" fill="#FCF0E4"/>
<rect x="198" y="321" width="80" height="14" rx="4" fill="#FCF0E4"/>
<rect x="198" y="321" width="130" height="14" rx="4" fill="#FCF0E4"/>
</g>
<defs>
<filter id="filter0_d" x="49.4258" y="24.4832" width="530" height="349.2" filterUnits="userSpaceOnUse" color-interpolation-filters="sRGB">
<feFlood flood-opacity="0" result="BackgroundImageFix"/>
<feColorMatrix in="SourceAlpha" type="matrix" values="0 0 0 0 0 0 0 0 0 0 0 0 0 0 0 0 0 0 127 0"/>
<feOffset dx="-10" dy="10"/>
<feGaussianBlur stdDeviation="10"/>
<feColorMatrix type="matrix" values="0 0 0 0 0.808398 0 0 0 0 0.730927 0 0 0 0 0.653455 0 0 0 0.1 0"/>
<feBlend mode="normal" in2="BackgroundImageFix" result="effect1_dropShadow"/>
<feBlend mode="normal" in="SourceGraphic" in2="effect1_dropShadow" result="shape"/>
</filter>
</defs>
</svg>
