<svg width="40" height="40" viewBox="0 0 40 40" fill="none" xmlns="http://www.w3.org/2000/svg">
<circle cx="20" cy="20" r="20" fill="#E6F6F2"/>
<path fill-rule="evenodd" clip-rule="evenodd" d="M27.9195 9.91006C28.127 10.1478 28.1025 10.5088 27.8647 10.7163L25.4022 12.8654C25.1644 13.0729 24.8034 13.0484 24.5959 12.8106C24.3884 12.5729 24.4129 12.2119 24.6507 12.0044L27.1132 9.85526C27.351 9.64775 27.712 9.67228 27.9195 9.91006ZM21.4652 9.7654C21.9137 9.76097 22.4096 10.003 22.603 10.5414L26.4883 21.3521C26.489 21.354 26.4897 21.356 26.4904 21.3579L27.1327 23.1451C27.3254 23.6813 27.1005 24.1837 26.7578 24.4691C26.4187 24.7517 25.8951 24.8825 25.4059 24.6352C23.9419 23.8952 22.6782 23.6529 21.458 23.7072C20.4297 23.753 19.4097 24.0099 18.295 24.3931L20.7014 27.9975C21.1174 28.6206 20.8492 29.4805 20.1382 29.7426L18.8576 30.2146C18.355 30.3999 17.7955 30.2141 17.499 29.7721L14.7941 25.7389C14.682 25.7823 14.5688 25.8257 14.4545 25.8692C13.8437 26.1016 13.1781 25.777 12.9622 25.1761L12.8905 24.9766C12.8888 24.972 12.8871 24.9697 12.8859 24.9684C12.8844 24.9668 12.8826 24.9655 12.8807 24.9646C12.8788 24.9637 12.8774 24.9635 12.8768 24.9634L12.8768 24.9634C12.8765 24.9634 12.8757 24.9634 12.8735 24.9642L11.1203 25.6104C10.5128 25.8343 9.84891 25.5145 9.63247 24.9122L8.25575 21.0815C8.25506 21.0796 8.25438 21.0777 8.25371 21.0757L8.06922 20.5624C7.85396 19.9635 8.1563 19.2936 8.7602 19.071L10.5134 18.4248C10.5158 18.4239 10.517 18.423 10.5182 18.4219C10.5196 18.4206 10.5216 18.4181 10.5232 18.4145C10.5266 18.4073 10.5269 18.4 10.5241 18.3922L10.4524 18.1927C10.2377 17.5951 10.5382 16.9206 11.1501 16.7022L11.3421 17.2404L11.1501 16.7022C11.4138 16.6082 11.6727 16.5177 11.9267 16.43C12.1987 16.3361 12.4635 16.2457 12.7221 16.1575C13.2922 15.9631 13.832 15.779 14.3512 15.5894C15.7425 15.0813 16.9073 14.5606 17.8884 13.7986C18.8589 13.0449 19.6746 12.0349 20.3273 10.5129C20.5421 10.012 21.022 9.76979 21.4652 9.7654ZM10.5235 24.0124L10.708 24.5257C10.7096 24.5303 10.7114 24.5326 10.7126 24.5339C10.714 24.5355 10.7158 24.5368 10.7178 24.5377C10.7197 24.5386 10.7211 24.5388 10.7217 24.5388L10.7217 24.5388C10.7219 24.5389 10.7228 24.5389 10.725 24.5381L12.4782 23.8919C13.0856 23.668 13.7496 23.9878 13.966 24.5901L14.0377 24.7896C14.0394 24.7942 14.0411 24.7965 14.0422 24.7977C14.0436 24.7992 14.0451 24.8002 14.0465 24.8009C14.0469 24.8011 14.0473 24.8012 14.0475 24.8013C14.0477 24.8012 14.0478 24.8012 14.048 24.8011C14.3051 24.7033 14.5572 24.6054 14.805 24.5083C15.0631 24.407 15.318 24.3059 15.5695 24.2062C15.9497 24.0554 16.3221 23.9077 16.6861 23.7673L14.2955 17.1154C14.2948 17.1135 14.2941 17.1116 14.2934 17.1097L14.2024 16.8564C13.8372 16.9847 13.4611 17.113 13.0772 17.244C12.8212 17.3313 12.5618 17.4198 12.2998 17.5102C12.0483 17.5971 11.7932 17.6862 11.5341 17.7786C11.5327 17.7791 11.5324 17.7795 11.5321 17.7797L11.5321 17.7798C11.5314 17.7804 11.53 17.782 11.5285 17.785C11.5271 17.7881 11.5263 17.7915 11.5261 17.7949C11.5259 17.7979 11.5263 17.8015 11.5279 17.8062L11.5996 18.0057C11.8149 18.6046 11.5126 19.2745 10.9087 19.4971L9.15547 20.1433C9.15308 20.1442 9.15183 20.1451 9.1507 20.1462C9.14926 20.1475 9.1473 20.1499 9.14563 20.1536C9.14229 20.1608 9.14194 20.1681 9.14473 20.1759L10.5215 24.0066C10.5221 24.0085 10.5228 24.0104 10.5235 24.0124ZM17.6674 23.1187C17.6668 23.1168 17.6661 23.1149 17.6654 23.1131L15.2756 16.4634C16.4904 15.9952 17.607 15.4642 18.5894 14.7012C19.7243 13.8198 20.6547 12.6494 21.3776 10.9633C21.3851 10.9459 21.3951 10.9352 21.4093 10.9265C21.4262 10.916 21.4503 10.9085 21.4765 10.9082C21.5027 10.9079 21.5177 10.915 21.5218 10.9175C21.5223 10.9178 21.5226 10.9181 21.5228 10.9182C21.523 10.9184 21.5231 10.9185 21.5231 10.9185L21.5233 10.9188L21.5241 10.92C21.5248 10.9212 21.526 10.9237 21.5275 10.9279L22.1699 12.7152C22.1705 12.7171 22.1712 12.719 22.1719 12.7209L26.0572 23.5316C26.061 23.5423 26.06 23.5452 26.0591 23.5479L26.0589 23.5485C26.0565 23.556 26.0478 23.5731 26.0263 23.5911C26.0048 23.609 25.981 23.6187 25.9624 23.6216C25.9472 23.624 25.9352 23.6222 25.9215 23.6153C24.2954 22.7932 22.8376 22.5019 21.4072 22.5655C20.1724 22.6205 18.9823 22.9394 17.7577 23.3699L17.6674 23.1187ZM17.1908 24.7976C16.8067 24.9449 16.4135 25.1009 16.0045 25.2631C15.9643 25.2791 15.9239 25.2951 15.8833 25.3112L18.4482 29.1355C18.4499 29.1381 18.4515 29.1395 18.4526 29.1404C18.4538 29.1413 18.4552 29.142 18.4565 29.1424C18.4577 29.1428 18.4588 29.1429 18.4595 29.1429C18.46 29.1429 18.4608 29.1429 18.4624 29.1423L19.743 28.6703C19.7466 28.6689 19.7478 28.6678 19.7486 28.6669C19.75 28.6653 19.7523 28.6621 19.754 28.6569C19.7557 28.6517 19.7559 28.6469 19.7555 28.6433C19.7551 28.6405 19.7542 28.6371 19.7509 28.6321L17.1908 24.7976ZM30.5287 15.3619C30.6379 15.658 30.4863 15.9866 30.1902 16.0957L26.7966 17.3466C26.5005 17.4558 26.172 17.3042 26.0628 17.0081C25.9537 16.712 26.1052 16.3834 26.4013 16.2743L29.7949 15.0234C30.091 14.9142 30.4196 15.0658 30.5287 15.3619ZM27.5108 20.8764C27.5405 20.5623 27.8194 20.3317 28.1335 20.3615L31.4825 20.6788C31.7966 20.7086 32.0272 20.9874 31.9974 21.3016C31.9677 21.6158 31.6888 21.8463 31.3747 21.8165L28.0257 21.4992C27.7116 21.4695 27.481 21.1906 27.5108 20.8764Z" fill="#34BFA2"/>
</svg>
