<svg width="40" height="40" viewBox="0 0 40 40" fill="none" xmlns="http://www.w3.org/2000/svg">
<circle cx="20" cy="20" r="20" fill="#E6F6F2"/>
<path fill-rule="evenodd" clip-rule="evenodd" d="M10.5974 17.5489C11.1258 17.1484 11.7759 16.7964 12.5103 16.4959C13.1712 16.2256 13.9132 15.9917 14.7185 15.8008C14.9873 14.5576 15.3729 13.4298 15.8521 12.4716C16.1679 11.8399 16.5348 11.2639 16.9473 10.7752C13.8399 11.8028 11.4273 14.3567 10.5974 17.5489ZM19.9997 9.14307C14.0035 9.14307 9.14258 14.004 9.14258 20.0002C9.14258 25.9964 14.0035 30.8574 19.9997 30.8574C25.996 30.8574 30.8569 25.9964 30.8569 20.0002C30.8569 14.004 25.996 9.14307 19.9997 9.14307ZM19.4283 10.3676C18.5232 10.6257 17.6177 11.4958 16.8743 12.9827C16.5038 13.7236 16.1897 14.5902 15.9498 15.5512C17.035 15.3662 18.2063 15.254 19.4283 15.2272V10.3676ZM19.4283 16.3703C18.0922 16.4009 16.8319 16.5381 15.6969 16.759C15.5234 17.7706 15.4283 18.8609 15.4283 20.0002C15.4283 21.1395 15.5234 22.2297 15.6969 23.2414C16.8319 23.4622 18.0922 23.5994 19.4283 23.63L19.4283 16.3703ZM20.5711 23.63L20.5711 16.3703C21.9073 16.4009 23.1675 16.5381 24.3025 16.759C24.476 17.7706 24.5711 18.8609 24.5711 20.0002C24.5711 21.1395 24.476 22.2297 24.3025 23.2414C23.1675 23.4622 21.9073 23.5994 20.5711 23.63ZM19.4283 24.7731C18.2063 24.7464 17.035 24.6342 15.9498 24.4492C16.1897 25.4101 16.5038 26.2768 16.8743 27.0178C17.6177 28.5046 18.5232 29.3747 19.4283 29.6328V24.7731ZM16.9473 29.2252C13.8399 28.1976 11.4273 25.6437 10.5974 22.4515C11.1258 22.852 11.7759 23.204 12.5103 23.5044C13.1712 23.7748 13.9132 24.0086 14.7185 24.1995C14.9873 25.4428 15.3729 26.5706 15.8521 27.5289C16.1679 28.1606 16.5348 28.7365 16.9473 29.2252ZM14.496 22.9645C13.9334 22.8128 13.4131 22.639 12.943 22.4467C12.053 22.0826 11.3705 21.6635 10.9196 21.2273C10.4703 20.7928 10.2854 20.3783 10.2854 20.0002C10.2854 19.6222 10.4703 19.2076 10.9196 18.7731C11.3705 18.3369 12.053 17.9178 12.943 17.5537C13.4131 17.3614 13.9334 17.1876 14.496 17.0359C14.3585 17.9799 14.2854 18.9747 14.2854 20.0002C14.2854 21.0257 14.3585 22.0205 14.496 22.9645ZM23.0522 29.2252C26.1596 28.1976 28.5722 25.6437 29.4021 22.4515C28.8736 22.852 28.2236 23.204 27.4892 23.5044C26.8283 23.7748 26.0862 24.0086 25.2809 24.1995C25.0122 25.4428 24.6265 26.5706 24.1474 27.5289C23.8315 28.1606 23.4647 28.7365 23.0522 29.2252ZM24.0496 24.4492C22.9644 24.6342 21.7931 24.7464 20.5711 24.7731V29.6328C21.4762 29.3747 22.3818 28.5046 23.1252 27.0178C23.4957 26.2768 23.8098 25.4101 24.0496 24.4492ZM25.5034 22.9645C26.066 22.8128 26.5863 22.639 27.0565 22.4467C27.9465 22.0826 28.6289 21.6635 29.0799 21.2273C29.5291 20.7928 29.714 20.3783 29.714 20.0002C29.714 19.6222 29.5291 19.2076 29.0799 18.7731C28.6289 18.3369 27.9465 17.9178 27.0565 17.5537C26.5863 17.3614 26.066 17.1876 25.5034 17.0359C25.6409 17.9799 25.714 18.9747 25.714 20.0002C25.714 21.0257 25.6409 22.0205 25.5034 22.9645ZM25.2809 15.8008C25.0121 14.5576 24.6265 13.4298 24.1474 12.4716C23.8315 11.8399 23.4647 11.2639 23.0522 10.7752C26.1596 11.8028 28.5722 14.3567 29.4021 17.5489C28.8736 17.1484 28.2236 16.7964 27.4892 16.4959C26.8283 16.2256 26.0862 15.9917 25.2809 15.8008ZM24.0496 15.5512C22.9644 15.3662 21.7931 15.254 20.5711 15.2272V10.3676C21.4762 10.6257 22.3818 11.4958 23.1252 12.9827C23.4957 13.7236 23.8098 14.5902 24.0496 15.5512Z" fill="#34BFA2"/>
</svg>
