<svg width="40" height="40" viewBox="0 0 40 40" fill="none" xmlns="http://www.w3.org/2000/svg">
<circle cx="20" cy="20" r="20" fill="#E6F6F2"/>
<path fill-rule="evenodd" clip-rule="evenodd" d="M18.9682 12.5716C18.6526 12.5716 18.3968 12.8274 18.3968 13.143V26.8573H23.4761C23.7482 25.2357 25.1584 24.0001 26.8573 24.0001C28.5561 24.0001 29.9664 25.2357 30.2384 26.8573H30.8573C31.1729 26.8573 31.4287 26.6014 31.4287 26.2859V13.143C31.4287 12.8274 31.1729 12.5716 30.8573 12.5716H18.9682ZM30.2384 28.0001H30.8573C31.8041 28.0001 32.5716 27.2326 32.5716 26.2859V13.143C32.5716 12.1962 31.8041 11.4287 30.8573 11.4287H18.9682C18.0214 11.4287 17.2539 12.1962 17.2539 13.143V16.6506H11.2524C10.6611 16.6506 10.1114 16.9554 9.79826 17.4571L7.51541 21.114C7.45875 21.2047 7.42871 21.3096 7.42871 21.4166V26.2859C7.42871 27.2326 8.19622 28.0001 9.143 28.0001H9.76183C10.0339 29.6217 11.4441 30.8573 13.143 30.8573C14.8419 30.8573 16.2521 29.6217 16.5242 28.0001H23.4761C23.7482 29.6217 25.1584 30.8573 26.8573 30.8573C28.5561 30.8573 29.9664 29.6217 30.2384 28.0001ZM16.5242 26.8573H17.2539V21.988H8.57157V26.2859C8.57157 26.6014 8.8274 26.8573 9.143 26.8573H9.76183C10.0339 25.2357 11.4441 24.0001 13.143 24.0001C14.8419 24.0001 16.2521 25.2357 16.5242 26.8573ZM9.03049 20.8451H17.2539V17.7935H11.2524C11.0553 17.7935 10.8721 17.8951 10.7677 18.0623L9.03049 20.8451ZM13.143 25.143C11.8806 25.143 10.8573 26.1663 10.8573 27.4287C10.8573 28.6911 11.8806 29.7144 13.143 29.7144C14.4054 29.7144 15.4287 28.6911 15.4287 27.4287C15.4287 26.1663 14.4054 25.143 13.143 25.143ZM26.8573 25.143C25.5949 25.143 24.5716 26.1663 24.5716 27.4287C24.5716 28.6911 25.5949 29.7144 26.8573 29.7144C28.1196 29.7144 29.143 28.6911 29.143 27.4287C29.143 26.1663 28.1196 25.143 26.8573 25.143Z" fill="#34BFA2"/>
</svg>
