<svg width="40" height="40" viewBox="0 0 40 40" fill="none" xmlns="http://www.w3.org/2000/svg">
<circle cx="20" cy="20" r="20" fill="#E6F6F2"/>
<path fill-rule="evenodd" clip-rule="evenodd" d="M21.0459 9.09466C22.3853 8.65708 23.691 8.66397 24.5462 9.03113C24.611 9.05897 24.6681 9.0974 24.7162 9.14353C24.7371 9.1552 24.7574 9.16831 24.7772 9.18289C25.0311 9.37027 25.0851 9.72803 24.8977 9.98197L23.0197 12.527C22.2263 13.6022 22.4548 15.117 23.53 15.9104C24.6052 16.7039 26.12 16.4754 26.9134 15.4002L28.7914 12.8552C28.895 12.7148 29.0571 12.6294 29.2315 12.6234C29.4058 12.6173 29.5734 12.6913 29.6865 12.8242C30.2895 13.533 30.6811 14.7786 30.658 16.1875C30.6345 17.6196 30.1842 19.2814 29.0225 20.8557C28.1857 21.9897 27.2913 22.6739 26.3989 23.1002C25.5144 23.5228 24.6569 23.6791 23.9303 23.7903C23.8488 23.8028 23.7711 23.8144 23.6967 23.8256C23.0801 23.9181 22.6954 23.9759 22.306 24.1685C21.8875 24.3756 21.422 24.7669 20.7503 25.6771L16.1395 31.9257C15.9521 32.1796 15.5944 32.2336 15.3404 32.0462C15.0865 31.8588 15.0325 31.501 15.2199 31.2471L19.8307 24.9986C20.551 24.0224 21.1468 23.467 21.7992 23.1442C22.3598 22.8668 22.9323 22.7825 23.5223 22.6957C23.6003 22.6842 23.6787 22.6726 23.7574 22.6606C24.4616 22.5529 25.1805 22.4158 25.9063 22.069C26.6241 21.7261 27.3737 21.1652 28.1029 20.1771C29.1161 18.804 29.4955 17.3755 29.5153 16.1688C29.5281 15.3885 29.3913 14.7242 29.1955 14.2323L27.833 16.0788C26.6649 17.6619 24.4345 17.9982 22.8514 16.83C21.2683 15.6619 20.932 13.4315 22.1001 11.8484L23.5135 9.93304C22.9649 9.86136 22.2239 9.91211 21.4008 10.181C20.2536 10.5558 19.0005 11.3396 17.9873 12.7127C17.2581 13.7009 16.9433 14.5826 16.8273 15.3696C16.7101 16.1654 16.7911 16.8927 16.8958 17.5973C16.9075 17.6761 16.9196 17.7544 16.9316 17.8324C17.0226 18.4217 17.1109 18.9937 17.0112 19.6111C16.8952 20.3297 16.5401 21.0627 15.8198 22.0389L11.209 28.2874C11.0216 28.5414 10.6639 28.5953 10.4099 28.4079C10.156 28.2206 10.102 27.8628 10.2894 27.6088L14.9002 21.3603C15.5719 20.4501 15.8085 19.8898 15.883 19.4289C15.9522 19.0001 15.8939 18.6154 15.8005 17.9989C15.7893 17.9246 15.7775 17.8469 15.7654 17.7654C15.6573 17.0383 15.5538 16.1728 15.6967 15.203C15.8409 14.2246 16.2309 13.1681 17.0677 12.0341C18.2294 10.4598 19.6845 9.53943 21.0459 9.09466ZM18.4254 22.7052C18.6794 22.8926 18.7333 23.2503 18.5459 23.5043L13.6741 30.1065C13.4867 30.3604 13.129 30.4144 12.875 30.227C12.6211 30.0396 12.5671 29.6819 12.7545 29.4279L17.6263 22.8257C17.8137 22.5718 18.1715 22.5178 18.4254 22.7052Z" fill="#34BFA2"/>
</svg>
