<svg width="40" height="40" viewBox="0 0 40 40" fill="none" xmlns="http://www.w3.org/2000/svg">
<circle cx="20" cy="20" r="20" fill="#E6F6F2"/>
<path fill-rule="evenodd" clip-rule="evenodd" d="M8.57477 17.8096C8.69058 14.2615 11.6944 12 14.0987 12C17.0508 12 19.027 13.3013 19.9999 14.3516C20.9728 13.3013 22.949 12 25.9011 12C27.6359 12 29.6459 13.1675 30.6961 15.1002C31.6911 16.9315 31.8076 19.3984 30.1941 22.1905H30.2856C30.6012 22.1905 30.8571 22.4463 30.8571 22.7619V25.8095C30.8571 26.1251 30.6012 26.381 30.2856 26.381H27.8094V28.8571C27.8094 29.1727 27.5536 29.4286 27.238 29.4286H24.1904C23.8748 29.4286 23.619 29.1727 23.619 28.8571V28.701C22.6226 29.3868 21.5136 30.0813 20.2826 30.7823C20.1073 30.8821 19.8924 30.8821 19.7171 30.7823C11.2421 25.9563 8.45846 21.3728 8.57477 17.8096ZM24.7618 28.2857H26.6666V25.8095C26.6666 25.4939 26.9224 25.2381 27.238 25.2381H29.7142V23.3333H27.238C26.9224 23.3333 26.6666 23.0775 26.6666 22.7619V20.2857H24.7618V22.7619C24.7618 23.0775 24.506 23.3333 24.1904 23.3333H21.7142V25.2381H24.1904C24.506 25.2381 24.7618 25.4939 24.7618 25.8095V28.2857ZM28.8503 22.1905C30.6714 19.4357 30.5288 17.186 29.6919 15.6459C28.8216 14.0442 27.1765 13.1429 25.9011 13.1429C22.7379 13.1429 20.9488 14.834 20.4848 15.5782C20.3804 15.7456 20.1971 15.8473 19.9999 15.8473C19.8026 15.8473 19.6193 15.7456 19.515 15.5782C19.051 14.834 17.2619 13.1429 14.0987 13.1429C12.2878 13.1429 9.81196 14.9381 9.71701 17.8469C9.62363 20.7078 11.8459 24.9175 19.9999 29.627C21.3648 28.8386 22.5659 28.0627 23.619 27.3031V26.381H21.1428C20.8272 26.381 20.5713 26.1251 20.5713 25.8095V22.7619C20.5713 22.4463 20.8272 22.1905 21.1428 22.1905H23.619V19.7143C23.619 19.3987 23.8748 19.1429 24.1904 19.1429H27.238C27.5536 19.1429 27.8094 19.3987 27.8094 19.7143V22.1905H28.8503Z" fill="#34BFA2"/>
</svg>
