<svg width="40" height="40" viewBox="0 0 40 40" fill="none" xmlns="http://www.w3.org/2000/svg">
<circle cx="20" cy="20" r="20" fill="#E6F6F2"/>
<path fill-rule="evenodd" clip-rule="evenodd" d="M24.2154 9.00312C24.7494 8.05007 25.9476 7.70977 26.891 8.27095L27.0305 8.35394C27.9634 8.9089 28.2706 10.123 27.7419 11.0665L23.5967 18.4641C23.859 18.8605 23.8891 19.3821 23.6884 19.8114C22.013 23.3955 22.6222 27.8807 23.3001 30.2012C23.4401 30.6805 23.402 31.2143 23.145 31.6728C22.7713 32.3398 22.0018 32.7182 21.2296 32.5184C20.5972 32.3547 19.9798 32.164 19.379 31.9511C17.8556 31.4113 16.4379 30.728 15.1505 29.977C13.3804 28.9445 11.8524 27.7813 10.6303 26.6804C9.64831 25.7959 8.85799 24.9462 8.29563 24.2297C7.93078 23.7649 7.91459 23.138 8.18673 22.6523C8.40627 22.2605 8.79082 21.9994 9.22168 21.9298L9.31282 22.4939L9.22168 21.9298C14.0103 21.1562 17.3964 18.4936 18.8623 16.8618C19.1693 16.52 19.6267 16.3314 20.0839 16.3763L24.2154 9.00312ZM21.1295 16.8483L22.6764 17.7686L26.7449 10.5079C26.9783 10.0914 26.8332 9.56641 26.4462 9.33615L26.3067 9.25315C25.9301 9.02913 25.4404 9.1548 25.2124 9.56178L21.1295 16.8483ZM20.0667 17.5458C19.9763 17.4921 19.8268 17.4983 19.7125 17.6256C18.1131 19.4059 14.5049 22.2339 9.40396 23.058C9.3106 23.0731 9.2295 23.1293 9.18374 23.211C9.11946 23.3257 9.13643 23.4499 9.19466 23.5241C9.6647 24.123 10.3239 24.8423 11.1492 25.6066C12.7936 25.0375 15.0785 24.0124 17.3097 21.3476L18.1859 22.0813C16.04 24.6442 13.8287 25.8111 12.1279 26.466C13.0374 27.2241 14.0888 27.9945 15.259 28.7106C15.7764 27.8877 16.3471 26.8463 17.1333 25.2908L18.1533 25.8064C17.3721 27.352 16.788 28.4223 16.2474 29.2856C17.0954 29.754 17.9956 30.1874 18.9407 30.5649C18.879 28.8174 19.0479 26.147 19.6854 24.0599L20.7784 24.3938C20.1238 26.5368 19.9968 29.4097 20.1068 30.9933C20.5676 31.1479 21.0376 31.2882 21.516 31.412C21.7437 31.4709 22.0062 31.3672 22.148 31.1142C22.2415 30.9473 22.265 30.7338 22.203 30.5217C21.494 28.0945 20.8047 23.2817 22.653 19.3274C22.6794 19.271 22.6834 19.2079 22.6687 19.1539C22.6545 19.1014 22.6265 19.0686 22.5961 19.0506L20.0667 17.5458Z" fill="#34BFA2"/>
</svg>
