<svg width="40" height="40" viewBox="0 0 40 40" fill="none" xmlns="http://www.w3.org/2000/svg">
<circle cx="20" cy="20" r="20" fill="#E6F6F2"/>
<path fill-rule="evenodd" clip-rule="evenodd" d="M18.4519 9.43974C19.111 8.29287 20.7656 8.29287 21.4246 9.43974L21.8214 10.1302C22.2735 10.917 22.0341 11.9199 21.2753 12.4177L20.5097 12.9199V16.2188L27.2211 17.1484C27.3623 17.1679 27.4843 17.2375 27.5716 17.3368C28.1868 17.3757 28.7831 17.7356 29.0529 18.4144L30.8165 22.8515C30.8432 22.9187 30.8569 22.9903 30.8569 23.0626C30.8569 23.7475 30.6274 24.5479 30.0798 25.1862C29.5181 25.841 28.6544 26.2858 27.4785 26.2858C25.0583 26.2858 23.9998 24.3159 23.9998 23.0626C23.9998 22.9879 24.0144 22.914 24.0428 22.845L25.8746 18.395C25.913 18.3019 25.9575 18.2149 26.0073 18.134L20.5097 17.3726V28.1396H23.4981C24.4063 28.1396 25.1426 28.8759 25.1426 29.7842C25.1426 30.6924 24.4063 31.4287 23.4981 31.4287H16.5014C15.5932 31.4287 14.8569 30.6924 14.8569 29.7842C14.8569 28.8759 15.5932 28.1396 16.5014 28.1396H19.3668V17.2143L14.3173 16.5149L15.9593 20.6462C15.986 20.7133 15.9997 20.785 15.9997 20.8572C15.9997 21.5421 15.7703 22.3425 15.2227 22.9809C14.6609 23.6357 13.7972 24.0805 12.6213 24.0805C10.2011 24.0805 9.14258 22.1105 9.14258 20.8572C9.14258 20.7826 9.15719 20.7087 9.1856 20.6397L11.0175 16.1897C11.3866 15.2929 12.3245 14.9654 13.1109 15.2027C13.1436 15.2015 13.1769 15.2031 13.2105 15.2078L19.3668 16.0605V12.9199L18.6012 12.4177C17.8424 11.9199 17.603 10.917 18.0552 10.1302L18.4519 9.43974ZM19.9383 11.928L20.6484 11.4621C20.9014 11.2962 20.9812 10.9619 20.8305 10.6996L20.4337 10.0092C20.214 9.62687 19.6625 9.62687 19.4428 10.0092L19.0461 10.6996C18.8953 10.9619 18.9751 11.2962 19.2281 11.4621L19.9383 11.928ZM13.1337 16.6312C12.944 16.1538 12.2698 16.1497 12.0743 16.6247L10.5672 20.2858H14.5863L13.1337 16.6312ZM14.778 21.4287H10.3897C10.6364 22.142 11.3341 22.9376 12.6213 22.9376C13.4831 22.9376 14.0229 22.6241 14.3553 22.2367C14.5613 21.9966 14.6996 21.7134 14.778 21.4287ZM27.9909 18.8365C27.8012 18.3592 27.127 18.355 26.9315 18.83L25.4244 22.4911H29.4434L27.9909 18.8365ZM29.6352 23.634H25.2468C25.4935 24.3474 26.1913 25.143 27.4785 25.143C28.3403 25.143 28.8801 24.8294 29.2124 24.442C29.4185 24.2019 29.5568 23.9187 29.6352 23.634ZM16.5014 29.2825C16.2244 29.2825 15.9998 29.5071 15.9998 29.7842C15.9998 30.0612 16.2244 30.2858 16.5014 30.2858H23.4981C23.7752 30.2858 23.9998 30.0612 23.9998 29.7842C23.9998 29.5071 23.7752 29.2825 23.4981 29.2825H16.5014Z" fill="#34BFA2"/>
</svg>
