<svg width="40" height="40" viewBox="0 0 40 40" fill="none" xmlns="http://www.w3.org/2000/svg">
<circle cx="20" cy="20" r="20" fill="#E6F6F2"/>
<path fill-rule="evenodd" clip-rule="evenodd" d="M17.6028 10.9439L18.3303 12.4691L19.9819 12.7392L18.7706 13.8884L19.0618 15.5422L17.5583 14.7105L16.1037 15.4175L16.3733 13.8172L15.161 12.6028L16.8311 12.4268L17.6028 10.9439ZM18.1444 9.65629C18.2636 9.76353 18.356 9.89669 18.4291 10.025L18.4393 10.043L19.1045 11.4376L20.6178 11.6851L20.6389 11.6902C20.7824 11.7251 20.9358 11.7772 21.0718 11.8622C21.2085 11.9478 21.3719 12.0959 21.4382 12.3321C21.5062 12.5743 21.4395 12.7916 21.3542 12.9435C21.2748 13.085 21.1624 13.2035 21.05 13.3012L20.0026 14.2949L20.2723 15.8267C20.3584 16.084 20.3602 16.4122 20.1592 16.679C20.0428 16.8335 19.869 16.9454 19.6605 16.9774C19.4596 17.0083 19.2734 16.9586 19.1226 16.8815L19.1142 16.8773L17.5243 15.9977L15.9376 16.769L15.9264 16.7739C15.6779 16.8818 15.3775 16.8681 15.1412 16.6901C14.9031 16.5106 14.8039 16.2181 14.8573 15.9369L15.1485 14.2079L13.8616 12.9187L13.8537 12.9101C13.7383 12.7847 13.6441 12.6195 13.6206 12.4214C13.5966 12.2184 13.6531 12.0255 13.7642 11.8726C13.9603 11.6025 14.2751 11.5057 14.5537 11.5175L16.1007 11.3546L16.7672 10.0739C16.8301 9.93885 16.913 9.79821 17.0272 9.68285C17.1497 9.559 17.3402 9.43502 17.5917 9.43361C17.837 9.43223 18.0245 9.54844 18.1444 9.65629ZM24.446 10.9562C23.8929 10.652 23.198 10.8537 22.8938 11.4068C22.5896 11.9598 22.7914 12.6548 23.3444 12.959C23.8975 13.2631 24.5924 13.0614 24.8966 12.5083C25.2008 11.9553 24.999 11.2604 24.446 10.9562ZM21.8924 10.856C22.5008 9.74993 23.8906 9.34643 24.9967 9.95479C26.1028 10.5631 26.5063 11.953 25.898 13.0591C25.2896 14.1652 23.8998 14.5687 22.7936 13.9603C21.6875 13.352 21.284 11.9621 21.8924 10.856ZM29.0038 13.0458L30.0806 15.3581L32.582 15.7433L30.7253 17.5177L31.1455 20.0716L28.8521 18.8124L26.6471 19.909L27.0797 17.4764L25.2388 15.6205L27.8095 15.3205L29.0038 13.0458ZM24.8065 15.6542C24.8034 15.6549 24.8017 15.655 24.8016 15.6549C24.8015 15.6547 24.8031 15.6544 24.8065 15.6542ZM29.5958 11.8972C29.735 12.0229 29.8462 12.1835 29.9373 12.3467L29.9475 12.365L30.8586 14.3216L32.976 14.6476L32.9975 14.6527C33.1794 14.6953 33.3645 14.7579 33.5236 14.857C33.6844 14.9571 33.8623 15.1234 33.9316 15.381C34.0018 15.642 33.9289 15.8786 33.8315 16.0509C33.739 16.2147 33.6049 16.3583 33.4613 16.4838L31.9509 17.9273L32.3118 20.1206C32.415 20.4273 32.4087 20.8021 32.1869 21.0964C32.0615 21.2628 31.8753 21.3857 31.6489 21.4231C31.4289 21.4594 31.2191 21.4078 31.0414 21.3179L31.0329 21.3135L28.8259 20.1018L26.5927 21.2124L26.5817 21.2173C26.3082 21.3392 25.9776 21.3286 25.7182 21.1332C25.4562 20.9357 25.3537 20.6139 25.4155 20.3068L25.8507 17.8602L24.0743 16.0695L24.0662 16.0606C23.9321 15.9136 23.8301 15.7265 23.8068 15.5089C23.7831 15.2874 23.8465 15.0793 23.9666 14.9142C24.1829 14.6166 24.5388 14.4982 24.87 14.513L27.078 14.2553L28.0492 12.4055C28.1303 12.2328 28.2314 12.0644 28.3633 11.9303C28.5021 11.7892 28.7094 11.6539 28.9796 11.6494C29.2463 11.645 29.4553 11.7703 29.5958 11.8972ZM22.1602 18.3847C21.6072 18.0806 20.9123 18.2823 20.6081 18.8354C20.3039 19.3884 20.5057 20.0833 21.0587 20.3875C21.6118 20.6917 22.3067 20.49 22.6109 19.9369C22.915 19.3839 22.7133 18.6889 22.1602 18.3847ZM19.6067 18.2846C20.2151 17.1785 21.6049 16.775 22.711 17.3834C23.8171 17.9917 24.2206 19.3816 23.6122 20.4877C23.0039 21.5938 21.614 21.9973 20.5079 21.3889C19.4018 20.7806 18.9983 19.3907 19.6067 18.2846ZM12.7631 18.5345C12.9578 17.7368 13.9053 17.3987 14.5611 17.8929L21.8674 23.3985C22.5117 23.8841 22.4637 24.8663 21.7751 25.2867L11.6094 31.493C10.7394 32.0242 9.66188 31.2368 9.90365 30.2465L12.7631 18.5345ZM21.1796 24.3113L13.8733 18.8056L13.1476 21.7778L21.0732 24.3762L21.1796 24.3113ZM19.7915 25.1587L12.8758 22.8914L12.2498 25.4552L16.8751 26.9392L19.7915 25.1587ZM15.5864 27.726L11.9781 26.5683L11.0139 30.5176L15.5864 27.726Z" fill="#34BFA2"/>
</svg>
