<svg width="40" height="40" viewBox="0 0 40 40" fill="none" xmlns="http://www.w3.org/2000/svg">
<circle cx="20" cy="20" r="20" fill="#E6F6F2"/>
<path d="M18.8977 21.8343H20.5456V20.7291H19.5569L20.1721 17.3747L19.0735 17.1758L18.3484 21.1823C18.3335 21.2617 18.3361 21.3434 18.356 21.4217C18.376 21.5 18.4127 21.5729 18.4637 21.6354C18.5166 21.6992 18.583 21.7503 18.6581 21.7847C18.7333 21.8192 18.8151 21.8361 18.8977 21.8343Z" fill="#34BFA2"/>
<path d="M22.5839 23.3316L21.8038 22.5469C21.6821 22.6717 21.5368 22.7707 21.3764 22.8381C21.216 22.9055 21.0438 22.9399 20.87 22.9392H18.3486V24.0445H20.87C21.5126 24.0443 22.1289 23.788 22.5839 23.3316Z" fill="#34BFA2"/>
<path d="M16.7002 19.0708C17.307 19.0708 17.7988 18.576 17.7988 17.9656C17.7988 17.3552 17.307 16.8604 16.7002 16.8604C16.0934 16.8604 15.6016 17.3552 15.6016 17.9656C15.6016 18.576 16.0934 19.0708 16.7002 19.0708Z" fill="#34BFA2"/>
<path d="M22.7432 19.0708C23.3499 19.0708 23.8418 18.576 23.8418 17.9656C23.8418 17.3552 23.3499 16.8604 22.7432 16.8604C22.1364 16.8604 21.6445 17.3552 21.6445 17.9656C21.6445 18.576 22.1364 19.0708 22.7432 19.0708Z" fill="#34BFA2"/>
<path fill-rule="evenodd" clip-rule="evenodd" d="M27.7909 29.6149L23.8413 29.0623V26.255L25.341 24.5364C25.7965 24.0063 26.0735 23.3447 26.132 22.6464L26.2858 20.7288C26.7606 20.6691 27.203 20.4551 27.5458 20.1193C27.8887 19.7836 28.1132 19.3444 28.1853 18.8686C28.2574 18.3927 28.1731 17.9062 27.9453 17.4829C27.7175 17.0597 27.3585 16.7228 26.923 16.5234L27.3899 15.1143C27.5151 14.747 27.5512 14.3549 27.4952 13.9707C27.4393 13.5865 27.2929 13.2213 27.0682 12.9056C26.8436 12.5899 26.5472 12.3327 26.2038 12.1555C25.8603 11.9783 25.4798 11.8863 25.0938 11.887H24.896C24.7641 10.9671 24.3073 10.1258 23.6092 9.51692C22.9112 8.90806 22.0186 8.57238 21.0948 8.57129H12.855C12.7093 8.57129 12.5696 8.62951 12.4665 8.73315C12.3635 8.83678 12.3057 8.97734 12.3057 9.12391C12.3063 9.70959 12.4392 10.2875 12.6942 10.814C12.9492 11.3405 13.3197 11.8018 13.7778 12.1633C13.2701 12.4323 12.8735 12.8734 12.6583 13.4086C12.4431 13.9437 12.4233 14.5382 12.6023 15.0866L13.234 16.9932C12.7713 17.1691 12.3811 17.4971 12.1267 17.9238C11.8723 18.3506 11.7684 18.8512 11.832 19.3448C11.8955 19.8383 12.1227 20.2958 12.4769 20.6432C12.831 20.9907 13.2913 21.2078 13.7833 21.2594L13.9097 22.6354C13.9659 23.3375 14.243 24.0033 14.7007 24.5364L16.1783 26.255H16.1509V29.0844L12.2013 29.637C11.0177 29.7958 9.93118 30.3803 9.14258 31.2823L9.96243 31.9999C10.5756 31.2956 11.4218 30.839 12.3441 30.7146L15.1786 30.3333L16.2717 30.1841H16.431L17.2385 29.4049V27.4873L17.4418 27.7084C17.6472 27.9452 17.9004 28.1352 18.1846 28.2657C18.4688 28.3963 18.7773 28.4644 19.0897 28.4655H20.8915C21.2039 28.4644 21.5125 28.3963 21.7967 28.2657C22.0808 28.1352 22.3341 27.9452 22.5395 27.7084L22.7317 27.4873V29.4049L23.5612 30.162H23.7205L24.8136 30.3333L27.6481 30.7146C28.5705 30.839 29.4167 31.2956 30.0298 31.9999L30.8569 31.2685C30.0678 30.3619 28.9783 29.7743 27.7909 29.6149ZM26.5879 17.5624L26.3902 19.5573H26.4012C26.5983 19.4867 26.7712 19.361 26.8997 19.1949C27.0282 19.0288 27.1069 18.8293 27.1265 18.6197C27.1461 18.4102 27.1059 18.1993 27.0105 18.012C26.9151 17.8247 26.7685 17.6687 26.5879 17.5624ZM26.4019 14.1192C26.3703 13.9113 26.289 13.7142 26.165 13.5448C26.0535 13.385 25.9078 13.2523 25.7385 13.1567C25.5693 13.061 25.3809 13.0048 25.1872 12.9922L26.1045 15.4624L26.3462 14.7385C26.4144 14.5396 26.4335 14.3271 26.4019 14.1192ZM22.8322 10.2992C22.3417 9.89634 21.7279 9.67639 21.0948 9.67652H13.4592C13.5859 10.3006 13.9229 10.8615 14.4134 11.2644C14.9039 11.6672 15.5177 11.8871 16.1509 11.887H23.7864C23.6598 11.2629 23.3227 10.702 22.8322 10.2992ZM14.2684 13.1496C14.0931 13.2454 13.9421 13.3807 13.8273 13.5448C13.7032 13.7142 13.6219 13.9113 13.5903 14.1192C13.5588 14.3271 13.5779 14.5396 13.646 14.7385L13.9536 15.6669L14.838 12.9922C14.6386 12.9999 14.4437 13.0537 14.2684 13.1496ZM13.0214 18.4923C12.9137 18.666 12.8561 18.8663 12.855 19.071C12.8565 19.3099 12.9349 19.5419 13.0785 19.7322C13.2221 19.9224 13.4232 20.0608 13.6515 20.1265L13.4647 18.0873C13.2825 18.1784 13.129 18.3186 13.0214 18.4923ZM14.5029 17.4739L14.9808 22.5414C15.0176 23.0205 15.2085 23.4744 15.5247 23.8346L18.2713 27.0121C18.3742 27.13 18.5009 27.2245 18.643 27.2893C18.7851 27.3541 18.9392 27.3877 19.0952 27.3879H20.8915C21.0475 27.3877 21.2017 27.3541 21.3437 27.2893C21.4858 27.2245 21.6125 27.13 21.7155 27.0121L24.4621 23.8346C24.7727 23.4855 24.965 23.0463 25.0114 22.5801L25.4893 17.4132V16.96L24.0116 12.9922H15.9971L14.5029 17.4739Z" fill="#34BFA2"/>
</svg>
