<svg width="80" height="80" viewBox="0 0 80 80" fill="none" xmlns="http://www.w3.org/2000/svg">
<circle cx="40" cy="39.9995" r="40" fill="#E6F6F2"/>
<path fill-rule="evenodd" clip-rule="evenodd" d="M38.1941 24.9995C37.6418 24.9995 37.1941 25.4472 37.1941 25.9995V49.9995H46.083C46.559 47.1618 49.027 44.9995 52 44.9995C54.973 44.9995 57.441 47.1618 57.917 49.9995H59C59.5523 49.9995 60 49.5518 60 48.9995V25.9995C60 25.4472 59.5523 24.9995 59 24.9995H38.1941ZM57.917 51.9995H59C60.6569 51.9995 62 50.6564 62 48.9995V25.9995C62 24.3427 60.6569 22.9995 59 22.9995H38.1941C36.5373 22.9995 35.1941 24.3427 35.1941 25.9995V32.1378H24.6915C23.6566 32.1378 22.6948 32.6712 22.1467 33.5492L18.1517 39.9487C18.0526 40.1075 18 40.291 18 40.4782V48.9995C18 50.6564 19.3431 51.9995 21 51.9995H22.083C22.559 54.8372 25.027 56.9995 28 56.9995C30.973 56.9995 33.441 54.8372 33.917 51.9995H46.083C46.559 54.8372 49.027 56.9995 52 56.9995C54.973 56.9995 57.441 54.8372 57.917 51.9995ZM33.917 49.9995H35.1941V41.4782H20V48.9995C20 49.5518 20.4477 49.9995 21 49.9995H22.083C22.559 47.1618 25.027 44.9995 28 44.9995C30.973 44.9995 33.441 47.1618 33.917 49.9995ZM20.8031 39.4782H35.1941V34.1378H24.6915C24.3466 34.1378 24.0259 34.3156 23.8433 34.6083L20.8031 39.4782ZM28 46.9995C25.7909 46.9995 24 48.7904 24 50.9995C24 53.2087 25.7909 54.9995 28 54.9995C30.2091 54.9995 32 53.2087 32 50.9995C32 48.7904 30.2091 46.9995 28 46.9995ZM52 46.9995C49.7909 46.9995 48 48.7904 48 50.9995C48 53.2087 49.7909 54.9995 52 54.9995C54.2091 54.9995 56 53.2087 56 50.9995C56 48.7904 54.2091 46.9995 52 46.9995Z" fill="#34BFA2"/>
</svg>
