<svg width="80" height="80" viewBox="0 0 80 80" fill="none" xmlns="http://www.w3.org/2000/svg">
<circle cx="40" cy="39.9995" r="40" fill="#E6F6F2"/>
<path d="M20.8445 50.7208L18.0577 58.6937C17.7697 59.5174 18.614 60.2788 19.3942 59.899L30.0186 54.7271M20.8445 50.7208L30.0186 54.7271M20.8445 50.7208L23.0746 44.3405M30.0186 54.7271L37.8602 50.9098M23.0746 44.3405L25.2074 38.2387C25.4393 37.5751 26.2687 37.3663 26.7813 37.8425L38.771 48.9804C39.2746 49.4482 39.1511 50.2814 38.5336 50.5819L37.8602 50.9098M23.0746 44.3405L37.8602 50.9098M27.2256 30.7893L28.1835 27.2492L25.827 24.3445C25.4963 23.901 25.8859 23.5132 26.4123 23.6274L29.7983 23.6037L31.508 20.9665C31.9312 20.2351 32.3292 20.2981 32.6599 21.0482L33.753 24.1083L36.8484 24.9392C37.6171 25.2102 37.7118 25.605 37.0233 26.0899L34.5555 28.0229L34.8084 31.427C34.9643 31.9466 34.6316 32.3873 34.1473 32.0736L31.0833 29.9429L27.6805 31.2119C27.3815 31.309 27.1351 31.0801 27.2256 30.7893ZM48.096 43.74L49.4395 38.9472L46.3082 35.0625C45.8694 34.469 46.4 33.9396 47.1075 34.0857L51.6697 34.0022L54.0126 30.4166C54.5937 29.423 55.1289 29.502 55.5632 30.5095L56.99 34.623L61.1479 35.6975C62.1794 36.0515 62.3012 36.5829 61.3663 37.2479L58.0126 39.8945L58.3024 44.4852C58.5045 45.1842 58.0498 45.784 57.4019 45.368L53.3059 42.5389L48.7025 44.3034C48.2982 44.4389 47.9697 44.1338 48.096 43.74ZM36.39 37.244C37.3396 35.8502 39.2288 35.4948 40.6097 36.4501C41.9906 37.4053 42.3402 39.3096 41.3907 40.7033C40.4411 42.097 38.5519 42.4525 37.171 41.4972C35.7902 40.5419 35.4405 38.6377 36.39 37.244ZM43.5277 21.7729C44.7938 19.9146 47.3127 19.4407 49.1539 20.7144C50.9951 21.9881 51.4613 24.5271 50.1953 26.3854C48.9292 28.2437 46.4103 28.7176 44.5691 27.4439C42.7279 26.1702 42.2617 23.6312 43.5277 21.7729Z" stroke="#34BFA2" stroke-width="2"/>
</svg>
