<svg width="320" height="340" viewBox="0 0 320 340" fill="none" xmlns="http://www.w3.org/2000/svg">
<rect y="-3.05176e-05" width="320" height="340" rx="14" fill="#34BFA2"/>
<mask id="mask0" mask-type="alpha" maskUnits="userSpaceOnUse" x="0" y="0" width="320" height="340">
<rect y="-3.05176e-05" width="320" height="340" rx="14" fill="#34BFA2"/>
</mask>
<g mask="url(#mask0)">
<path opacity="0.3" d="M260 220C260 286.274 215.278 340 160.111 340L0 340L2.86197e-06 100L160.111 100C215.278 100 260 153.726 260 220Z" fill="#B5E6DB"/>
</g>
<path d="M47.1957 53V43.3666C47.1957 38.9852 43.7891 36 39.587 36H37.413C33.2109 36 29.8043 38.9852 29.8043 43.3666V53M28.1739 53H48.8261C50.0267 53 51 54.0148 51 55.2666V67.7333C51 68.9851 50.0267 70 48.8261 70H28.1739C26.9733 70 26 68.9851 26 67.7333V55.2666C26 54.0148 26.9733 53 28.1739 53Z" stroke="white" stroke-width="2"/>
</svg>
